<?xml version="1.0" encoding="UTF-8"?> <svg xmlns="http://www.w3.org/2000/svg" id="a" width="1920" height="1080" viewBox="0 0 1920 1080"><path d="m434.71,711.44s.08-.04.08-.09-.04-.09-.08-.09c-.05,0-.09.04-.09.09s.04.09.09.09Z" style="fill:#fff;"></path><path d="m358.58,656.88c.14,0,.27-.12.27-.26s-.12-.26-.27-.26-.26.12-.26.26.11.26.26.26Z" style="fill:#fff;"></path><path d="m713.67,685.79s.09-.04.09-.09c0-.05-.05-.09-.09-.09s-.09.04-.09.09c0,.05.05.09.09.09Z" style="fill:#fff;"></path><path d="m695.92,701.31s.08-.04.08-.09c0-.05-.04-.08-.08-.08-.05,0-.09.04-.09.08,0,.05.04.09.09.09Z" style="fill:#fff;"></path><path d="m676.83,715.17s.08-.04.08-.08c0-.05-.04-.09-.08-.09-.05,0-.09.04-.09.09,0,.05.04.08.09.08Z" style="fill:#fff;"></path><path d="m656.58,727.27c.05,0,.09-.04.09-.09,0-.05-.04-.09-.09-.09-.05,0-.08.04-.08.09,0,.05.04.09.08.09Z" style="fill:#fff;"></path><path d="m635.33,737.77c.2,0,.35-.16.35-.35s-.15-.35-.35-.35-.35.16-.35.35.16.35.35.35Z" style="fill:#fff;"></path><path d="m613.25,745.97c.14,0,.27-.12.27-.27s-.12-.26-.27-.26-.27.12-.27.26.12.27.27.27Z" style="fill:#fff;"></path><path d="m590.51,752.25c.14,0,.26-.12.26-.27s-.11-.26-.26-.26-.27.11-.27.26.12.27.27.27Z" style="fill:#fff;"></path><circle cx="567.3" cy="756.19" r=".27" style="fill:#fff;"></circle><path d="m543.81,758.57c.14,0,.26-.12.26-.26,0-.15-.11-.27-.26-.27s-.27.12-.27.27.12.26.27.26Z" style="fill:#fff;"></path><path d="m520.22,758.57c.14,0,.27-.12.27-.26,0-.15-.12-.27-.27-.27s-.26.12-.26.27.11.26.26.26Z" style="fill:#fff;"></path><path d="m496.72,756.45c.14,0,.27-.12.27-.26s-.12-.26-.27-.26-.26.12-.26.26.11.26.26.26Z" style="fill:#fff;"></path><path d="m473.51,752.25c.14,0,.27-.12.27-.27s-.12-.26-.27-.26-.26.11-.26.26.11.27.26.27Z" style="fill:#fff;"></path><path d="m450.78,745.97c.14,0,.27-.12.27-.27s-.12-.26-.27-.26-.26.12-.26.26.11.27.26.27Z" style="fill:#fff;"></path><path d="m428.69,737.94c.29,0,.53-.24.53-.53s-.24-.52-.53-.52-.53.23-.53.52.24.53.53.53Z" style="fill:#fff;"></path><path d="m407.45,727.54c.19,0,.34-.16.34-.35s-.15-.35-.34-.35-.35.15-.35.35.15.35.35.35Z" style="fill:#fff;"></path><path d="m387.19,715.61c.3,0,.52-.23.52-.52s-.23-.53-.52-.53-.53.24-.53.53.24.52.53.52Z" style="fill:#fff;"></path><path d="m368.11,701.49c.15,0,.27-.12.27-.27s-.11-.26-.27-.26-.26.12-.26.26.11.27.26.27Z" style="fill:#fff;"></path><path d="m350.35,686.32c.34,0,.62-.27.62-.61s-.28-.61-.62-.61-.62.27-.62.61.27.61.62.61Z" style="fill:#fff;"></path><path d="m334.04,669.26c.34,0,.62-.27.62-.61s-.27-.61-.62-.61-.61.27-.61.61.27.61.61.61Z" style="fill:#fff;"></path><path d="m319.34,650.47c.15,0,.27-.11.27-.26s-.11-.26-.27-.26-.26.11-.26.26.11.26.26.26Z" style="fill:#fff;"></path><path d="m306.35,631.14c.33,0,.61-.27.61-.61s-.27-.61-.61-.61-.62.27-.62.61.27.61.62.61Z" style="fill:#fff;"></path><path d="m295.17,610.02c.14,0,.27-.12.27-.27s-.12-.26-.27-.26-.26.11-.26.26.11.27.26.27Z" style="fill:#fff;"></path><path d="m285.9,588.59c.29,0,.52-.24.52-.53s-.23-.53-.52-.53-.53.24-.53.53.24.53.53.53Z" style="fill:#fff;"></path><path d="m278.61,565.89c.14,0,.26-.11.26-.26s-.11-.26-.26-.26-.27.11-.27.26.12.26.27.26Z" style="fill:#fff;"></path><path d="m273.36,542.72s.08-.05.08-.09-.04-.08-.08-.08c-.05,0-.09.04-.09.08s.04.09.09.09Z" style="fill:#fff;"></path><path d="m285.9,403.42s.08-.04.08-.09c0-.05-.04-.09-.08-.09-.05,0-.09.04-.09.09,0,.05.04.09.09.09Z" style="fill:#fff;"></path><circle cx="821.18" cy="495.7" r=".08" style="fill:#fff;"></circle><path d="m820.22,519.36s.08-.04.08-.09c0-.05-.04-.08-.08-.08s-.09.04-.09.08c0,.05.05.09.09.09Z" style="fill:#fff;"></path><path d="m817.33,542.77c.05,0,.09-.04.09-.09,0-.05-.04-.09-.09-.09-.05,0-.08.04-.08.09,0,.05.04.09.08.09Z" style="fill:#fff;"></path><path d="m812.55,565.87c.05,0,.09-.04.09-.09s-.04-.09-.09-.09c-.05,0-.08.04-.08.09s.04.09.08.09Z" style="fill:#fff;"></path><path d="m805.91,588.5c.05,0,.09-.04.09-.09,0-.05-.04-.09-.09-.09-.05,0-.08.04-.08.09,0,.05.04.09.08.09Z" style="fill:#fff;"></path><path d="m797.44,610.52s.09-.04.09-.09-.05-.09-.09-.09-.09.04-.09.09.05.09.09.09Z" style="fill:#fff;"></path><path d="m787.21,631.77s.08-.04.08-.09c0-.05-.04-.08-.08-.08-.05,0-.09.04-.09.08,0,.05.04.09.09.09Z" style="fill:#fff;"></path><path d="m775.27,652.12s.08-.04.08-.09c0-.05-.04-.08-.08-.08-.05,0-.08.04-.08.08,0,.05.03.09.08.09Z" style="fill:#fff;"></path><path d="m761.72,671.43s.08-.04.08-.09-.04-.09-.08-.09c-.05,0-.09.04-.09.09s.04.09.09.09Z" style="fill:#fff;"></path><path d="m746.64,690c.3,0,.53-.23.53-.53s-.24-.52-.53-.52-.53.23-.53.52.24.53.53.53Z" style="fill:#fff;"></path><path d="m730.13,706.41s.08-.04.08-.09c0-.05-.04-.08-.08-.08-.05,0-.09.04-.09.08,0,.05.04.09.09.09Z" style="fill:#fff;"></path><path d="m712.3,722.12c.19,0,.35-.16.35-.35s-.16-.35-.35-.35-.35.16-.35.35.15.35.35.35Z" style="fill:#fff;"></path><path d="m693.27,736.24c.29,0,.52-.23.52-.52s-.24-.53-.52-.53-.53.24-.53.53.24.52.53.52Z" style="fill:#fff;"></path><path d="m673.17,748.59c.3,0,.53-.23.53-.52s-.24-.52-.53-.52-.53.23-.53.52.24.52.53.52Z" style="fill:#fff;"></path><path d="m652.14,759.08c.19,0,.35-.16.35-.35s-.16-.35-.35-.35-.35.16-.35.35.15.35.35.35Z" style="fill:#fff;"></path><path d="m630.3,768.52c.48,0,.88-.39.88-.87s-.4-.88-.88-.88-.88.39-.88.88.39.87.88.87Z" style="fill:#fff;"></path><path d="m607.8,775.62c.49,0,.88-.39.88-.87s-.39-.88-.88-.88-.88.39-.88.88.4.87.88.87Z" style="fill:#fff;"></path><circle cx="584.81" cy="780" r="1.05" style="fill:#fff;"></circle><path d="m561.46,784.14c.43,0,.78-.35.78-.78s-.35-.78-.78-.78-.79.35-.79.78.35.78.79.78Z" style="fill:#fff;"></path><path d="m537.91,785.68c.48,0,.87-.4.87-.88s-.39-.88-.87-.88-.88.39-.88.88.39.88.88.88Z" style="fill:#fff;"></path><circle cx="514.32" cy="784.32" r=".78" style="fill:#fff;"></circle><path d="m490.86,782.79c.48,0,.87-.4.87-.88s-.39-.88-.87-.88-.88.4-.88.88.39.88.88.88Z" style="fill:#fff;"></path><path d="m467.67,778.93c.72,0,1.31-.59,1.31-1.32s-.59-1.31-1.31-1.31-1.32.59-1.32,1.31.59,1.32,1.32,1.32Z" style="fill:#fff;"></path><path d="m444.9,773c.87,0,1.58-.71,1.58-1.58s-.71-1.58-1.58-1.58-1.57.71-1.57,1.58.7,1.58,1.57,1.58Z" style="fill:#fff;"></path><path d="m422.72,764.98c.87,0,1.58-.7,1.58-1.58s-.71-1.57-1.58-1.57-1.58.7-1.58,1.57.71,1.58,1.58,1.58Z" style="fill:#fff;"></path><path d="m401.26,754.48c.48,0,.88-.39.88-.87s-.4-.88-.88-.88-.88.39-.88.88.39.87.88.87Z" style="fill:#fff;"></path><path d="m380.68,743.23c.62,0,1.13-.51,1.13-1.14s-.51-1.14-1.13-1.14-1.14.51-1.14,1.14.51,1.14,1.14,1.14Z" style="fill:#fff;"></path><path d="m361.09,729.99c.59,0,1.05-.47,1.05-1.05s-.46-1.05-1.05-1.05-1.05.47-1.05,1.05.47,1.05,1.05,1.05Z" style="fill:#fff;"></path><path d="m342.65,715.28c.58,0,1.04-.47,1.04-1.05s-.46-1.05-1.04-1.05-1.05.47-1.05,1.05.46,1.05,1.05,1.05Z" style="fill:#fff;"></path><path d="m325.46,699.21c.63,0,1.14-.51,1.14-1.14s-.51-1.13-1.14-1.13-1.13.51-1.13,1.13.51,1.14,1.13,1.14Z" style="fill:#fff;"></path><path d="m309.66,681.35c.43,0,.78-.35.78-.79s-.35-.78-.78-.78-.79.35-.79.78.36.79.79.79Z" style="fill:#fff;"></path><path d="m295.33,662.61c.43,0,.79-.35.79-.79s-.36-.79-.79-.79-.78.35-.78.79.36.79.78.79Z" style="fill:#fff;"></path><path d="m282.58,643.03c.58,0,1.05-.47,1.05-1.05s-.47-1.05-1.05-1.05-1.05.46-1.05,1.05.47,1.05,1.05,1.05Z" style="fill:#fff;"></path><path d="m271.48,622.03c.48,0,.88-.39.88-.87s-.4-.88-.88-.88-.88.39-.88.88.4.87.88.87Z" style="fill:#fff;"></path><path d="m262.12,600.29c.43,0,.79-.35.79-.79s-.36-.78-.79-.78-.78.35-.78.78.35.79.78.79Z" style="fill:#fff;"></path><path d="m254.56,577.77c.33,0,.61-.27.61-.61s-.27-.61-.61-.61-.62.27-.62.61.27.61.62.61Z" style="fill:#fff;"></path><path d="m248.85,554.89c.33,0,.62-.27.62-.61s-.28-.61-.62-.61-.62.27-.62.61.27.61.62.61Z" style="fill:#fff;"></path><path d="m245.01,531.53c.29,0,.53-.24.53-.52s-.24-.53-.53-.53-.53.24-.53.53.24.52.53.52Z" style="fill:#fff;"></path><path d="m243.09,507.84c.19,0,.35-.16.35-.35s-.16-.35-.35-.35-.36.16-.36.35.16.35.36.35Z" style="fill:#fff;"></path><path d="m243.09,484.16c.14,0,.26-.11.26-.26s-.12-.27-.26-.27c-.15,0-.27.12-.27.27s.11.26.27.26Z" style="fill:#fff;"></path><path d="m245.01,460.48c.05,0,.08-.04.08-.09s-.03-.08-.08-.08c-.05,0-.08.04-.08.08s.04.09.08.09Z" style="fill:#fff;"></path><path d="m248.85,437.2s.08-.04.08-.09c0-.05-.04-.09-.08-.09-.05,0-.09.04-.09.09,0,.05.04.09.09.09Z" style="fill:#fff;"></path><path d="m254.56,414.32s.08-.05.08-.09-.04-.09-.08-.09c-.05,0-.09.04-.09.09s.04.09.09.09Z" style="fill:#fff;"></path><path d="m262.12,391.97c.05,0,.09-.04.09-.08,0-.05-.04-.09-.09-.09-.05,0-.08.04-.08.09,0,.05.04.08.08.08Z" style="fill:#fff;"></path><path d="m309.66,310.92s.08-.04.08-.09-.04-.09-.08-.09c-.05,0-.08.04-.08.09s.03.09.08.09Z" style="fill:#fff;"></path><path d="m817.33,448.8c.05,0,.09-.04.09-.09s-.04-.09-.09-.09c-.05,0-.08.04-.08.09s.04.09.08.09Z" style="fill:#fff;"></path><path d="m820.22,472.21s.08-.04.08-.09-.04-.09-.08-.09-.09.04-.09.09.05.09.09.09Z" style="fill:#fff;"></path><path d="m846.59,519.36s.08-.04.08-.09c0-.05-.04-.09-.08-.09-.05,0-.09.04-.09.09,0,.05.04.09.09.09Z" style="fill:#fff;"></path><path d="m843.94,542.8s.08-.04.08-.09c0-.05-.04-.08-.08-.08-.05,0-.09.04-.09.08,0,.05.04.09.09.09Z" style="fill:#fff;"></path><path d="m839.55,565.98c.05,0,.09-.04.09-.09,0-.05-.04-.09-.09-.09-.05,0-.08.04-.08.09,0,.05.04.09.08.09Z" style="fill:#fff;"></path><path d="m833.45,588.76s.08-.04.08-.09-.04-.09-.08-.09c-.05,0-.09.04-.09.09s.04.09.09.09Z" style="fill:#fff;"></path><path d="m825.66,611.03s.08-.04.08-.09c0-.05-.04-.08-.08-.08-.05,0-.09.04-.09.08,0,.05.04.09.09.09Z" style="fill:#fff;"></path><path d="m816.23,632.65s.08-.04.08-.08-.04-.09-.08-.09c-.05,0-.09.04-.09.09s.04.08.09.08Z" style="fill:#fff;"></path><path d="m805.2,653.51s.08-.04.08-.09-.04-.09-.08-.09c-.05,0-.09.04-.09.09s.04.09.09.09Z" style="fill:#fff;"></path><path d="m792.65,673.66c.14,0,.26-.11.26-.26s-.11-.26-.26-.26c-.15,0-.27.11-.27.26s.11.26.27.26Z" style="fill:#fff;"></path><path d="m778.64,692.72c.2,0,.35-.16.35-.35s-.15-.35-.35-.35-.34.16-.34.35.15.35.34.35Z" style="fill:#fff;"></path><path d="m763.25,710.87c.34,0,.62-.28.62-.62s-.28-.61-.62-.61-.61.27-.61.61.27.62.61.62Z" style="fill:#fff;"></path><path d="m746.57,727.55c.34,0,.61-.27.61-.61s-.27-.61-.61-.61-.62.27-.62.61.27.61.62.61Z" style="fill:#fff;"></path><path d="m728.69,742.85c.29,0,.52-.24.52-.53s-.24-.53-.52-.53-.53.24-.53.53.24.53.53.53Z" style="fill:#fff;"></path><path d="m709.71,756.86c.29,0,.52-.24.52-.53s-.24-.52-.52-.52-.52.23-.52.52.23.53.52.53Z" style="fill:#fff;"></path><path d="m689.73,770.72c1.02,0,1.84-.82,1.84-1.83s-.82-1.83-1.84-1.83-1.83.82-1.83,1.83.82,1.83,1.83,1.83Z" style="fill:#fff;"></path><path d="m668.88,781.22c.72,0,1.31-.59,1.31-1.31s-.59-1.31-1.31-1.31-1.31.59-1.31,1.31.58,1.31,1.31,1.31Z" style="fill:#fff;"></path><path d="m647.26,790.13c.43,0,.79-.36.79-.79s-.36-.78-.79-.78-.78.35-.78.78.35.79.78.79Z" style="fill:#fff;"></path><path d="m624.99,798.27c.63,0,1.14-.51,1.14-1.13s-.51-1.14-1.14-1.14-1.13.51-1.13,1.14.51,1.13,1.13,1.13Z" style="fill:#fff;"></path><path d="m602.21,804.64c.78,0,1.39-.63,1.39-1.4s-.62-1.4-1.39-1.4-1.4.62-1.4,1.4.62,1.4,1.4,1.4Z" style="fill:#fff;"></path><path d="m579.03,809.03c.77,0,1.4-.62,1.4-1.4s-.63-1.4-1.4-1.4-1.4.62-1.4,1.4.63,1.4,1.4,1.4Z" style="fill:#fff;"></path><path d="m555.58,811.32c.59,0,1.05-.47,1.05-1.05s-.46-1.05-1.05-1.05-1.04.47-1.04,1.05.46,1.05,1.04,1.05Z" style="fill:#fff;"></path><path d="m532.02,812.2c.57,0,1.05-.47,1.05-1.05s-.48-1.05-1.05-1.05-1.05.47-1.05,1.05.46,1.05,1.05,1.05Z" style="fill:#fff;"></path><path d="m508.44,811.84c.87,0,1.58-.7,1.58-1.57s-.71-1.58-1.58-1.58-1.58.71-1.58,1.58.7,1.57,1.58,1.57Z" style="fill:#fff;"></path><path d="m484.99,808.94c.73,0,1.32-.59,1.32-1.32s-.59-1.32-1.32-1.32-1.31.59-1.31,1.32.59,1.32,1.31,1.32Z" style="fill:#fff;"></path><path d="m461.81,804.9c.92,0,1.66-.74,1.66-1.66s-.74-1.66-1.66-1.66-1.66.74-1.66,1.66.75,1.66,1.66,1.66Z" style="fill:#fff;"></path><path d="m439.03,799.41c1.26,0,2.28-1.02,2.28-2.27s-1.02-2.28-2.28-2.28-2.28,1.02-2.28,2.28,1.02,2.27,2.28,2.27Z" style="fill:#fff;"></path><path d="m416.77,791.53c1.2,0,2.18-.98,2.18-2.19s-.98-2.18-2.18-2.18-2.19.98-2.19,2.18.98,2.19,2.19,2.19Z" style="fill:#fff;"></path><path d="m395.15,781.48c.87,0,1.57-.71,1.57-1.58s-.7-1.58-1.57-1.58-1.58.71-1.58,1.58.7,1.58,1.58,1.58Z" style="fill:#fff;"></path><path d="m374.29,771.16c1.26,0,2.28-1.02,2.28-2.28s-1.02-2.28-2.28-2.28-2.28,1.02-2.28,2.28,1.02,2.28,2.28,2.28Z" style="fill:#fff;"></path><circle cx="354.31" cy="756.33" r="1.58" style="fill:#fff;"></circle><path d="m335.33,744.25c1.07,0,1.93-.86,1.93-1.92s-.86-1.93-1.93-1.93-1.92.86-1.92,1.93.85,1.92,1.92,1.92Z" style="fill:#fff;"></path><path d="m317.45,728.6c.92,0,1.67-.75,1.67-1.66s-.75-1.66-1.67-1.66-1.66.75-1.66,1.66.75,1.66,1.66,1.66Z" style="fill:#fff;"></path><path d="m300.77,711.66c.78,0,1.4-.62,1.4-1.4s-.62-1.4-1.4-1.4-1.4.63-1.4,1.4.63,1.4,1.4,1.4Z" style="fill:#fff;"></path><path d="m285.38,693.25c.48,0,.87-.39.87-.88s-.39-.87-.87-.87-.88.39-.88.87.39.88.88.88Z" style="fill:#fff;"></path><path d="m271.37,674.44c.59,0,1.05-.47,1.05-1.05s-.46-1.05-1.05-1.05-1.05.47-1.05,1.05.47,1.05,1.05,1.05Z" style="fill:#fff;"></path><path d="m258.82,654.3c.49,0,.88-.39.88-.88s-.39-.88-.88-.88-.87.39-.87.88.39.88.87.88Z" style="fill:#fff;"></path><path d="m247.79,633.44c.49,0,.88-.39.88-.88s-.4-.88-.88-.88-.88.4-.88.88.4.88.88.88Z" style="fill:#fff;"></path><path d="m238.36,611.73c.43,0,.79-.35.79-.78s-.36-.79-.79-.79-.78.36-.78.79.35.78.78.78Z" style="fill:#fff;"></path><path d="m230.58,589.55c.48,0,.87-.39.87-.88s-.39-.87-.87-.87-.88.39-.88.87.39.88.88.88Z" style="fill:#fff;"></path><path d="m224.47,566.76c.48,0,.88-.39.88-.87s-.4-.88-.88-.88-.88.4-.88.88.39.87.88.87Z" style="fill:#fff;"></path><path d="m220.08,543.5c.43,0,.79-.35.79-.79s-.36-.78-.79-.78-.78.35-.78.78.35.79.78.79Z" style="fill:#fff;"></path><path d="m217.44,520.06c.44,0,.79-.35.79-.78s-.35-.79-.79-.79-.78.36-.78.79.35.78.78.78Z" style="fill:#fff;"></path><path d="m216.55,496.22c.3,0,.53-.24.53-.53s-.24-.53-.53-.53-.52.24-.52.53.23.53.52.53Z" style="fill:#fff;"></path><path d="m217.44,472.47c.2,0,.35-.16.35-.35s-.15-.35-.35-.35-.34.16-.34.35.15.35.34.35Z" style="fill:#fff;"></path><path d="m220.08,449.03c.2,0,.36-.16.36-.35s-.16-.35-.36-.35-.35.16-.35.35.16.35.35.35Z" style="fill:#fff;"></path><path d="m224.47,425.76c.14,0,.26-.11.26-.26s-.11-.27-.26-.27-.27.12-.27.27.12.26.27.26Z" style="fill:#fff;"></path><path d="m230.57,402.8c.05,0,.09-.04.09-.09s-.04-.09-.09-.09c-.05,0-.08.04-.08.09s.04.09.08.09Z" style="fill:#fff;"></path><path d="m238.36,380.54c.05,0,.09-.04.09-.09,0-.05-.04-.09-.09-.09-.05,0-.08.04-.08.09,0,.05.04.09.08.09Z" style="fill:#fff;"></path><path d="m247.79,358.91c.05,0,.09-.04.09-.09s-.04-.09-.09-.09c-.05,0-.08.04-.08.09s.04.09.08.09Z" style="fill:#fff;"></path><path d="m258.82,338.06c.05,0,.09-.04.09-.09,0-.05-.04-.09-.09-.09-.05,0-.08.04-.08.09,0,.05.04.09.08.09Z" style="fill:#fff;"></path><path d="m271.37,318.08c.05,0,.09-.04.09-.09,0-.05-.04-.08-.09-.08-.05,0-.08.04-.08.08,0,.05.04.09.08.09Z" style="fill:#fff;"></path><path d="m285.38,299.1s.08-.04.08-.08-.04-.09-.08-.09c-.05,0-.09.05-.09.09s.04.08.09.08Z" style="fill:#fff;"></path><path d="m300.77,281.22s.08-.04.08-.08c0-.05-.04-.09-.08-.09s-.09.04-.09.09c0,.05.05.08.09.08Z" style="fill:#fff;"></path><path d="m317.45,264.54c.05,0,.09-.04.09-.09s-.04-.09-.09-.09c-.05,0-.08.04-.08.09s.04.09.08.09Z" style="fill:#fff;"></path><path d="m335.33,249.15s.09-.04.09-.09c0-.05-.05-.09-.09-.09s-.08.04-.08.09c0,.05.04.09.08.09Z" style="fill:#fff;"></path><path d="m354.31,235.14c.05,0,.09-.04.09-.08,0-.05-.04-.09-.09-.09-.05,0-.08.04-.08.09,0,.05.04.08.08.08Z" style="fill:#fff;"></path><path d="m374.29,222.6s.08-.04.08-.09c0-.05-.04-.08-.08-.08-.05,0-.09.04-.09.08,0,.05.04.09.09.09Z" style="fill:#fff;"></path><path d="m416.77,202.14s.08-.04.08-.09c0-.05-.04-.08-.08-.08-.05,0-.08.04-.08.08,0,.05.03.09.08.09Z" style="fill:#fff;"></path><path d="m843.94,448.77s.08-.04.08-.09c0-.05-.04-.09-.08-.09-.05,0-.09.04-.09.09,0,.05.04.09.09.09Z" style="fill:#fff;"></path><path d="m846.59,472.21s.08-.04.08-.09c0-.05-.04-.08-.08-.08-.05,0-.09.04-.09.08,0,.05.04.09.09.09Z" style="fill:#fff;"></path><path d="m873.75,495.78s.08-.04.08-.09-.04-.09-.08-.09c-.05,0-.09.04-.09.09s.04.09.09.09Z" style="fill:#fff;"></path><path d="m872.94,519.36s.08-.04.08-.09c0-.05-.04-.08-.08-.08-.05,0-.09.04-.09.08,0,.05.04.09.09.09Z" style="fill:#fff;"></path><path d="m870.5,542.82s.08-.04.08-.09c0-.05-.04-.08-.08-.08-.05,0-.09.04-.09.08,0,.05.04.09.09.09Z" style="fill:#fff;"></path><path d="m866.45,566.24c.14,0,.27-.11.27-.26s-.12-.26-.27-.26-.27.11-.27.26.12.26.27.26Z" style="fill:#fff;"></path><path d="m860.8,589.14c.14,0,.27-.12.27-.26s-.12-.27-.27-.27-.26.12-.26.27.12.26.26.26Z" style="fill:#fff;"></path><path d="m853.59,611.61c.14,0,.26-.12.26-.27s-.11-.26-.26-.26-.27.11-.27.26.12.27.27.27Z" style="fill:#fff;"></path><path d="m844.84,633.52c.14,0,.27-.12.27-.26,0-.15-.12-.27-.27-.27s-.26.12-.26.27c0,.14.11.26.26.26Z" style="fill:#fff;"></path><path d="m834.6,654.59c.05,0,.09-.04.09-.08,0-.05-.04-.09-.09-.09-.05,0-.08.04-.08.09,0,.05.04.08.08.08Z" style="fill:#fff;"></path><path d="m822.93,675.27c.15,0,.27-.11.27-.26s-.11-.27-.27-.27-.26.12-.26.27.11.26.26.26Z" style="fill:#fff;"></path><path d="m809.86,695.18c.29,0,.53-.24.53-.52s-.24-.53-.53-.53-.52.24-.52.53.24.52.52.52Z" style="fill:#fff;"></path><path d="m795.48,713.87c.29,0,.53-.24.53-.53s-.24-.52-.53-.52-.52.24-.52.52.24.53.52.53Z" style="fill:#fff;"></path><path d="m779.83,731.62c.33,0,.61-.27.61-.61s-.27-.62-.61-.62-.62.28-.62.62.27.61.62.61Z" style="fill:#fff;"></path><path d="m763.01,748.07c.29,0,.53-.24.53-.52s-.24-.52-.53-.52-.52.23-.52.52.24.52.52.52Z" style="fill:#fff;"></path><path d="m745.08,764.01c.62,0,1.13-.5,1.13-1.13s-.51-1.14-1.13-1.14-1.13.51-1.13,1.14.51,1.13,1.13,1.13Z" style="fill:#fff;"></path><path d="m726.14,778.6c.91,0,1.66-.74,1.66-1.66s-.75-1.66-1.66-1.66-1.67.74-1.67,1.66.75,1.66,1.67,1.66Z" style="fill:#fff;"></path><path d="m706.28,792.55c1.59,0,2.88-1.29,2.88-2.88s-1.29-2.89-2.88-2.89-2.88,1.29-2.88,2.89,1.29,2.88,2.88,2.88Z" style="fill:#fff;"></path><path d="m685.58,803.87c1.6,0,2.89-1.29,2.89-2.88s-1.29-2.89-2.89-2.89-2.89,1.29-2.89,2.89,1.29,2.88,2.89,2.88Z" style="fill:#fff;"></path><path d="m664.15,812.78c1.07,0,1.93-.86,1.93-1.92s-.86-1.93-1.93-1.93-1.93.87-1.93,1.93.87,1.92,1.93,1.92Z" style="fill:#fff;"></path><path d="m642.09,821.24c1.11,0,2.02-.9,2.02-2.02s-.91-2.01-2.02-2.01-2.01.9-2.01,2.01.91,2.02,2.01,2.02Z" style="fill:#fff;"></path><path d="m619.51,827.71c.91,0,1.66-.74,1.66-1.66s-.75-1.66-1.66-1.66-1.67.74-1.67,1.66.75,1.66,1.67,1.66Z" style="fill:#fff;"></path><path d="m596.51,832.43c.62,0,1.13-.51,1.13-1.14s-.51-1.14-1.13-1.14-1.14.51-1.14,1.14.51,1.14,1.14,1.14Z" style="fill:#fff;"></path><path d="m573.2,836.78c1.01,0,1.83-.82,1.83-1.83s-.82-1.83-1.83-1.83-1.84.82-1.84,1.83.82,1.83,1.84,1.83Z" style="fill:#fff;"></path><path d="m549.7,838.38c.78,0,1.4-.63,1.4-1.4s-.62-1.4-1.4-1.4-1.4.63-1.4,1.4.63,1.4,1.4,1.4Z" style="fill:#fff;"></path><path d="m526.12,838.79c.77,0,1.4-.63,1.4-1.4s-.63-1.4-1.4-1.4-1.4.63-1.4,1.4.62,1.4,1.4,1.4Z" style="fill:#fff;"></path><path d="m502.56,838c1.01,0,1.83-.83,1.83-1.84s-.82-1.83-1.83-1.83-1.84.82-1.84,1.83.82,1.84,1.84,1.84Z" style="fill:#fff;"></path><path d="m479.13,835.59c1.26,0,2.28-1.02,2.28-2.27s-1.02-2.27-2.28-2.27-2.27,1.02-2.27,2.27,1.01,2.27,2.27,2.27Z" style="fill:#fff;"></path><path d="m455.97,830.79c1.06,0,1.93-.86,1.93-1.92s-.87-1.93-1.93-1.93-1.93.86-1.93,1.93.86,1.92,1.93,1.92Z" style="fill:#fff;"></path><path d="m433.16,825.89c1.69,0,3.06-1.37,3.06-3.06s-1.37-3.06-3.06-3.06-3.06,1.37-3.06,3.06,1.37,3.06,3.06,3.06Z" style="fill:#fff;"></path><path d="m410.83,818.99c2.08,0,3.76-1.68,3.76-3.76s-1.68-3.76-3.76-3.76-3.76,1.68-3.76,3.76,1.68,3.76,3.76,3.76Z" style="fill:#fff;"></path><path d="m389.07,809.17c1.69,0,3.07-1.37,3.07-3.06s-1.38-3.06-3.07-3.06-3.06,1.37-3.06,3.06,1.37,3.06,3.06,3.06Z" style="fill:#fff;"></path><path d="m368,798.57c1.69,0,3.06-1.37,3.06-3.06s-1.37-3.06-3.06-3.06-3.07,1.37-3.07,3.06,1.37,3.06,3.07,3.06Z" style="fill:#fff;"></path><path d="m347.71,786.89c1.88,0,3.41-1.53,3.41-3.41s-1.53-3.41-3.41-3.41-3.42,1.53-3.42,3.41,1.53,3.41,3.42,3.41Z" style="fill:#fff;"></path><path d="m328.29,774.28c2.32,0,4.2-1.88,4.2-4.2s-1.88-4.2-4.2-4.2-4.2,1.88-4.2,4.2,1.89,4.2,4.2,4.2Z" style="fill:#fff;"></path><path d="m309.84,757.63c1.26,0,2.28-1.01,2.28-2.27s-1.02-2.28-2.28-2.28-2.28,1.02-2.28,2.28,1.02,2.27,2.28,2.27Z" style="fill:#fff;"></path><path d="m292.46,741.69c1.26,0,2.27-1.02,2.27-2.28s-1.01-2.28-2.27-2.28-2.28,1.02-2.28,2.28,1.02,2.28,2.28,2.28Z" style="fill:#fff;"></path><path d="m276.21,724.15c1.02,0,1.84-.82,1.84-1.84s-.82-1.83-1.84-1.83-1.83.82-1.83,1.83.82,1.84,1.83,1.84Z" style="fill:#fff;"></path><path d="m261.19,705.79c.91,0,1.66-.75,1.66-1.67s-.75-1.66-1.66-1.66-1.67.75-1.67,1.66.75,1.67,1.67,1.67Z" style="fill:#fff;"></path><path d="m247.45,686.6c.92,0,1.67-.75,1.67-1.66s-.75-1.66-1.67-1.66-1.66.75-1.66,1.66.75,1.66,1.66,1.66Z" style="fill:#fff;"></path><path d="m235.08,666.78c1.07,0,1.93-.86,1.93-1.92s-.86-1.93-1.93-1.93-1.93.86-1.93,1.93.87,1.92,1.93,1.92Z" style="fill:#fff;"></path><path d="m224.11,645.28c.72,0,1.32-.59,1.32-1.32s-.59-1.31-1.32-1.31-1.31.59-1.31,1.31.59,1.32,1.31,1.32Z" style="fill:#fff;"></path><path d="m214.62,623.25c.48,0,.88-.39.88-.88s-.4-.87-.88-.87-.88.39-.88.87.39.88.88.88Z" style="fill:#fff;"></path><path d="m206.64,601.23c.58,0,1.05-.47,1.05-1.05s-.47-1.05-1.05-1.05-1.05.47-1.05,1.05.47,1.05,1.05,1.05Z" style="fill:#fff;"></path><path d="m200.2,578.53c.58,0,1.05-.47,1.05-1.05s-.47-1.05-1.05-1.05-1.05.46-1.05,1.05.47,1.05,1.05,1.05Z" style="fill:#fff;"></path><path d="m195.35,555.44c.58,0,1.04-.47,1.04-1.05s-.46-1.05-1.04-1.05-1.05.47-1.05,1.05.46,1.05,1.05,1.05Z" style="fill:#fff;"></path><path d="m192.1,531.9c.48,0,.88-.39.88-.88s-.4-.87-.88-.87-.88.39-.88.87.39.88.88.88Z" style="fill:#fff;"></path><path d="m190.47,508.01c.29,0,.53-.23.53-.52s-.24-.52-.53-.52-.53.23-.53.52.24.52.53.52Z" style="fill:#fff;"></path><path d="m190.47,484.69c.44,0,.78-.36.78-.79s-.34-.78-.78-.78-.78.35-.78.78.35.79.78.79Z" style="fill:#fff;"></path><path d="m192.1,461.15c.43,0,.78-.35.78-.78s-.35-.79-.78-.79-.79.35-.79.79.36.78.79.78Z" style="fill:#fff;"></path><path d="m195.35,437.35c.19,0,.35-.15.35-.35s-.16-.35-.35-.35-.35.16-.35.35.15.35.35.35Z" style="fill:#fff;"></path><path d="m200.2,414.44c.29,0,.53-.24.53-.52s-.24-.53-.53-.53-.53.24-.53.53.24.52.53.52Z" style="fill:#fff;"></path><path d="m206.64,391.57c.19,0,.35-.16.35-.35s-.16-.35-.35-.35-.35.16-.35.35.16.35.35.35Z" style="fill:#fff;"></path><path d="m214.62,369.1s.08-.04.08-.09c0-.05-.04-.08-.08-.08-.05,0-.09.04-.09.08,0,.05.04.09.09.09Z" style="fill:#fff;"></path><path d="m224.11,347.51c.05,0,.09-.04.09-.09,0-.05-.04-.08-.09-.08-.05,0-.08.04-.08.08,0,.05.04.09.08.09Z" style="fill:#fff;"></path><path d="m235.08,326.79c.14,0,.26-.12.26-.27s-.11-.26-.26-.26-.27.11-.27.26.12.27.27.27Z" style="fill:#fff;"></path><path d="m247.45,306.71c.14,0,.27-.12.27-.27s-.12-.26-.27-.26-.26.11-.26.26.11.27.26.27Z" style="fill:#fff;"></path><path d="m261.19,287.62c.19,0,.34-.16.34-.35s-.15-.35-.34-.35-.35.16-.35.35.15.35.35.35Z" style="fill:#fff;"></path><path d="m276.21,269.34c.14,0,.27-.12.27-.27s-.12-.26-.27-.26-.26.12-.26.26.11.27.26.27Z" style="fill:#fff;"></path><path d="m292.46,252.23c.14,0,.26-.11.26-.26s-.11-.26-.26-.26-.27.12-.27.26.12.26.27.26Z" style="fill:#fff;"></path><path d="m309.84,236.29c.14,0,.27-.12.27-.27s-.12-.26-.27-.26-.26.11-.26.26.11.27.26.27Z" style="fill:#fff;"></path><path d="m328.29,221.41c.05,0,.09-.04.09-.09,0-.05-.04-.09-.09-.09-.05,0-.08.04-.08.09,0,.05.04.09.08.09Z" style="fill:#fff;"></path><path d="m347.71,208s.08-.04.08-.09-.04-.09-.08-.09c-.05,0-.09.04-.09.09s.04.09.09.09Z" style="fill:#fff;"></path><path d="m368,195.98s.08-.04.08-.09-.04-.09-.08-.09c-.05,0-.09.04-.09.09s.04.09.09.09Z" style="fill:#fff;"></path><path d="m389.07,185.37s.09-.04.09-.09-.05-.09-.09-.09-.08.04-.08.09.04.09.08.09Z" style="fill:#fff;"></path><path d="m860.8,402.6c.05,0,.09-.04.09-.09s-.04-.09-.09-.09c-.05,0-.08.04-.08.09s.04.09.08.09Z" style="fill:#fff;"></path><path d="m866.45,425.5c.05,0,.08-.04.08-.09s-.03-.09-.08-.09c-.05,0-.08.04-.08.09s.04.09.08.09Z" style="fill:#fff;"></path><path d="m870.5,448.74s.08-.04.08-.09c0-.05-.04-.09-.08-.09-.05,0-.09.04-.09.09,0,.05.04.09.09.09Z" style="fill:#fff;"></path><path d="m872.94,472.21s.08-.04.08-.09-.04-.09-.08-.09c-.05,0-.09.04-.09.09s.04.09.09.09Z" style="fill:#fff;"></path><path d="m900.04,495.96c.14,0,.27-.12.27-.26s-.12-.26-.27-.26-.26.12-.26.26.11.26.26.26Z" style="fill:#fff;"></path><path d="m899.28,519.54c.14,0,.26-.11.26-.26,0-.14-.11-.26-.26-.26s-.27.12-.27.26c0,.15.12.26.27.26Z" style="fill:#fff;"></path><circle cx="897.02" cy="542.76" r=".26" style="fill:#fff;"></circle><path d="m893.25,566.4c.2,0,.36-.16.36-.35s-.16-.35-.36-.35-.34.16-.34.35.15.35.34.35Z" style="fill:#fff;"></path><path d="m888,589.4c.19,0,.35-.16.35-.35s-.16-.35-.35-.35-.35.16-.35.35.16.35.35.35Z" style="fill:#fff;"></path><path d="m881.29,612.45c.43,0,.78-.35.78-.79s-.35-.79-.78-.79-.78.35-.78.79.35.79.78.79Z" style="fill:#fff;"></path><path d="m873.14,634.86c.58,0,1.05-.47,1.05-1.05s-.47-1.05-1.05-1.05-1.05.47-1.05,1.05.46,1.05,1.05,1.05Z" style="fill:#fff;"></path><path d="m863.59,655.64c.14,0,.27-.12.27-.26,0-.15-.12-.27-.27-.27s-.26.12-.26.27c0,.14.11.26.26.26Z" style="fill:#fff;"></path><path d="m852.68,676.56c.14,0,.26-.11.26-.26s-.11-.26-.26-.26c-.15,0-.27.12-.27.26s.11.26.27.26Z" style="fill:#fff;"></path><path d="m840.45,697c.29,0,.53-.24.53-.52s-.24-.53-.53-.53-.53.24-.53.53.24.52.53.52Z" style="fill:#fff;"></path><path d="m826.95,716.16c.2,0,.35-.15.35-.35s-.15-.35-.35-.35-.35.15-.35.35.16.35.35.35Z" style="fill:#fff;"></path><path d="m812.25,734.79c.29,0,.52-.24.52-.52s-.23-.53-.52-.53-.53.24-.53.53.24.52.53.52Z" style="fill:#fff;"></path><path d="m796.38,752.86c.63,0,1.13-.51,1.13-1.14s-.5-1.14-1.13-1.14-1.13.51-1.13,1.14.51,1.14,1.13,1.14Z" style="fill:#fff;"></path><path d="m779.44,769.71c.87,0,1.58-.7,1.58-1.57s-.71-1.58-1.58-1.58-1.58.71-1.58,1.58.7,1.57,1.58,1.57Z" style="fill:#fff;"></path><path d="m761.47,784.57c.63,0,1.13-.51,1.13-1.13s-.5-1.14-1.13-1.14-1.13.51-1.13,1.14.51,1.13,1.13,1.13Z" style="fill:#fff;"></path><path d="m742.56,799.38c1.02,0,1.84-.82,1.84-1.84s-.82-1.84-1.84-1.84-1.83.82-1.83,1.84.82,1.84,1.83,1.84Z" style="fill:#fff;"></path><circle cx="722.79" cy="810.41" r="2.53" style="fill:#fff;"></circle><path d="m702.24,825.49c1.93,0,3.49-1.56,3.49-3.5s-1.56-3.5-3.49-3.5-3.5,1.56-3.5,3.5,1.57,3.5,3.5,3.5Z" style="fill:#fff;"></path><path d="m680.98,834.76c1.4,0,2.54-1.13,2.54-2.53s-1.14-2.54-2.54-2.54-2.53,1.13-2.53,2.54,1.13,2.53,2.53,2.53Z" style="fill:#fff;"></path><path d="m659.12,844.84c2.08,0,3.76-1.69,3.76-3.76s-1.68-3.76-3.76-3.76-3.76,1.68-3.76,3.76,1.68,3.76,3.76,3.76Z" style="fill:#fff;"></path><path d="m636.72,852.27c2.08,0,3.76-1.69,3.76-3.76s-1.68-3.76-3.76-3.76-3.76,1.68-3.76,3.76,1.69,3.76,3.76,3.76Z" style="fill:#fff;"></path><path d="m613.91,856.77c1.26,0,2.28-1.02,2.28-2.27s-1.02-2.28-2.28-2.28-2.28,1.02-2.28,2.28,1.02,2.27,2.28,2.27Z" style="fill:#fff;"></path><path d="m590.75,861.45c1.35,0,2.45-1.1,2.45-2.45s-1.1-2.45-2.45-2.45-2.45,1.1-2.45,2.45,1.1,2.45,2.45,2.45Z" style="fill:#fff;"></path><path d="m567.35,864.91c1.59,0,2.88-1.29,2.88-2.89s-1.29-2.88-2.88-2.88-2.89,1.29-2.89,2.88,1.29,2.89,2.89,2.89Z" style="fill:#fff;"></path><path d="m543.81,865.55c1.11,0,2.01-.9,2.01-2.01s-.9-2.01-2.01-2.01-2.01.9-2.01,2.01.9,2.01,2.01,2.01Z" style="fill:#fff;"></path><path d="m520.22,866.33c1.55,0,2.8-1.25,2.8-2.8s-1.26-2.8-2.8-2.8-2.8,1.25-2.8,2.8,1.26,2.8,2.8,2.8Z" style="fill:#fff;"></path><path d="m496.67,865.17c1.74,0,3.15-1.41,3.15-3.15s-1.41-3.15-3.15-3.15-3.14,1.41-3.14,3.15,1.41,3.15,3.14,3.15Z" style="fill:#fff;"></path><path d="m473.27,862.16c1.74,0,3.15-1.41,3.15-3.15s-1.41-3.15-3.15-3.15-3.14,1.41-3.14,3.15,1.41,3.15,3.14,3.15Z" style="fill:#fff;"></path><path d="m450.12,857.82c1.83,0,3.32-1.49,3.32-3.32s-1.48-3.32-3.32-3.32-3.33,1.48-3.33,3.32,1.48,3.32,3.33,3.32Z" style="fill:#fff;"></path><path d="m427.3,852.89c2.41,0,4.37-1.96,4.37-4.38s-1.96-4.37-4.37-4.37-4.38,1.96-4.38,4.37,1.96,4.38,4.38,4.38Z" style="fill:#fff;"></path><path d="m404.91,846.06c2.76,0,4.99-2.23,4.99-4.98s-2.23-4.99-4.99-4.99-4.98,2.23-4.98,4.99,2.23,4.98,4.98,4.98Z" style="fill:#fff;"></path><path d="m383.04,836.34c2.27,0,4.1-1.84,4.1-4.11s-1.83-4.11-4.1-4.11-4.11,1.83-4.11,4.11,1.83,4.11,4.11,4.11Z" style="fill:#fff;"></path><path d="m361.79,828.03c3.33,0,6.03-2.7,6.03-6.04s-2.69-6.04-6.03-6.04-6.04,2.7-6.04,6.04,2.69,6.04,6.04,6.04Z" style="fill:#fff;"></path><path d="m341.23,815.66c2.9,0,5.25-2.35,5.25-5.25s-2.35-5.24-5.25-5.24-5.24,2.35-5.24,5.24,2.34,5.25,5.24,5.25Z" style="fill:#fff;"></path><path d="m321.46,803.05c3.05,0,5.51-2.47,5.51-5.51s-2.47-5.51-5.51-5.51-5.51,2.47-5.51,5.51,2.47,5.51,5.51,5.51Z" style="fill:#fff;"></path><path d="m302.55,788.24c2.66,0,4.81-2.15,4.81-4.81s-2.15-4.81-4.81-4.81-4.81,2.15-4.81,4.81,2.15,4.81,4.81,4.81Z" style="fill:#fff;"></path><path d="m284.59,773.21c2.8,0,5.08-2.27,5.08-5.07s-2.28-5.07-5.08-5.07-5.07,2.27-5.07,5.07,2.27,5.07,5.07,5.07Z" style="fill:#fff;"></path><path d="m267.64,755.05c1.83,0,3.32-1.48,3.32-3.32s-1.48-3.32-3.32-3.32-3.33,1.49-3.33,3.32,1.49,3.32,3.33,3.32Z" style="fill:#fff;"></path><path d="m251.78,737.06c1.55,0,2.8-1.25,2.8-2.79s-1.25-2.8-2.8-2.8-2.79,1.25-2.79,2.8,1.25,2.79,2.79,2.79Z" style="fill:#fff;"></path><path d="m237.07,718.61c1.55,0,2.79-1.25,2.79-2.79s-1.25-2.8-2.79-2.8-2.79,1.25-2.79,2.8,1.25,2.79,2.79,2.79Z" style="fill:#fff;"></path><path d="m223.57,698.92c1.36,0,2.45-1.1,2.45-2.45s-1.1-2.45-2.45-2.45-2.45,1.1-2.45,2.45,1.1,2.45,2.45,2.45Z" style="fill:#fff;"></path><path d="m211.35,678.22c1.06,0,1.92-.86,1.92-1.93s-.86-1.93-1.92-1.93-1.93.86-1.93,1.93.86,1.93,1.93,1.93Z" style="fill:#fff;"></path><path d="m200.43,657.56c1.21,0,2.18-.98,2.18-2.18s-.97-2.19-2.18-2.19-2.19.98-2.19,2.19.98,2.18,2.19,2.18Z" style="fill:#fff;"></path><path d="m190.88,635.99c1.21,0,2.19-.98,2.19-2.19s-.98-2.19-2.19-2.19-2.18.98-2.18,2.19.98,2.19,2.18,2.19Z" style="fill:#fff;"></path><path d="m182.73,613.94c1.26,0,2.28-1.02,2.28-2.27s-1.02-2.28-2.28-2.28-2.28,1.02-2.28,2.28,1.02,2.27,2.28,2.27Z" style="fill:#fff;"></path><path d="m176.02,590.71c.92,0,1.67-.74,1.67-1.66s-.75-1.66-1.67-1.66-1.66.75-1.66,1.66.75,1.66,1.66,1.66Z" style="fill:#fff;"></path><circle cx="170.77" cy="566.05" r="1.58" style="fill:#fff;"></circle><path d="m167,544.6c1.02,0,1.84-.83,1.84-1.84s-.82-1.84-1.84-1.84-1.83.82-1.83,1.84.82,1.84,1.83,1.84Z" style="fill:#fff;"></path><path d="m164.74,520.68c.77,0,1.39-.63,1.39-1.4s-.62-1.4-1.39-1.4-1.4.62-1.4,1.4.62,1.4,1.4,1.4Z" style="fill:#fff;"></path><path d="m163.98,497.01c.72,0,1.31-.59,1.31-1.31s-.59-1.31-1.31-1.31-1.31.59-1.31,1.31.59,1.31,1.31,1.31Z" style="fill:#fff;"></path><path d="m164.74,473.26c.62,0,1.13-.51,1.13-1.14s-.51-1.14-1.13-1.14-1.14.51-1.14,1.14.51,1.14,1.14,1.14Z" style="fill:#fff;"></path><path d="m167,449.77c.63,0,1.14-.51,1.14-1.14s-.51-1.14-1.14-1.14-1.13.51-1.13,1.14.5,1.14,1.13,1.14Z" style="fill:#fff;"></path><path d="m170.77,426.22c.48,0,.87-.39.87-.88s-.39-.88-.87-.88-.88.39-.88.88.39.88.88.88Z" style="fill:#fff;"></path><path d="m176.02,402.87c.29,0,.53-.24.53-.53s-.24-.52-.53-.52-.52.24-.52.52.24.53.52.53Z" style="fill:#fff;"></path><circle cx="182.73" cy="379.73" r=".88" style="fill:#fff;"></circle><path d="m190.88,357.94c.2,0,.35-.16.35-.35s-.15-.35-.35-.35-.34.16-.34.35.15.35.34.35Z" style="fill:#fff;"></path><path d="m200.43,336.54c.29,0,.53-.23.53-.52s-.24-.53-.53-.53-.53.24-.53.53.24.52.53.52Z" style="fill:#fff;"></path><path d="m211.35,315.36c.14,0,.26-.11.26-.26s-.12-.26-.26-.26c-.15,0-.27.12-.27.26s.11.26.27.26Z" style="fill:#fff;"></path><path d="m223.57,295.45c.29,0,.53-.23.53-.52s-.24-.53-.53-.53-.53.24-.53.53.24.52.53.52Z" style="fill:#fff;"></path><path d="m237.07,275.92c.19,0,.35-.15.35-.35s-.16-.35-.35-.35-.35.15-.35.35.16.35.35.35Z" style="fill:#fff;"></path><path d="m251.78,257.39c.14,0,.27-.12.27-.26s-.12-.26-.27-.26-.27.12-.27.26.12.26.27.26Z" style="fill:#fff;"></path><path d="m267.64,239.93c.14,0,.27-.12.27-.26,0-.15-.12-.26-.27-.26s-.27.11-.27.26c0,.14.12.26.27.26Z" style="fill:#fff;"></path><path d="m284.59,223.34s.09-.04.09-.08c0-.05-.05-.09-.09-.09s-.08.04-.08.09c0,.05.04.08.08.08Z" style="fill:#fff;"></path><path d="m893.25,425.43c.05,0,.09-.04.09-.09s-.04-.09-.09-.09c-.05,0-.08.04-.08.09s.04.09.08.09Z" style="fill:#fff;"></path><path d="m897.02,448.72s.09-.04.09-.09-.05-.09-.09-.09-.08.04-.08.09.04.09.08.09Z" style="fill:#fff;"></path><path d="m899.28,472.2s.08-.04.08-.09c0-.05-.04-.08-.08-.08s-.09.04-.09.08c0,.05.05.09.09.09Z" style="fill:#fff;"></path><path d="m926.32,495.96c.14,0,.27-.12.27-.26s-.12-.26-.27-.26-.26.12-.26.26.11.26.26.26Z" style="fill:#fff;"></path><path d="m925.62,520.06c.44,0,.79-.35.79-.78s-.35-.79-.79-.79-.78.36-.78.79.35.78.78.78Z" style="fill:#fff;"></path><path d="m923.51,543.39c.34,0,.61-.27.61-.61s-.27-.62-.61-.62-.62.27-.62.62.27.61.62.61Z" style="fill:#fff;"></path><path d="m919.99,566.72c.34,0,.61-.28.61-.62s-.27-.61-.61-.61-.61.27-.61.61.27.62.61.62Z" style="fill:#fff;"></path><path d="m915.08,589.71c.3,0,.53-.24.53-.53s-.24-.52-.53-.52c-.28,0-.52.24-.52.52s.24.53.52.53Z" style="fill:#fff;"></path><path d="m908.81,613.58c.92,0,1.66-.74,1.66-1.66s-.74-1.66-1.66-1.66-1.66.74-1.66,1.66.74,1.66,1.66,1.66Z" style="fill:#fff;"></path><path d="m901.18,637.14c1.6,0,2.89-1.29,2.89-2.89s-1.29-2.88-2.89-2.88-2.88,1.29-2.88,2.88,1.29,2.89,2.88,2.89Z" style="fill:#fff;"></path><path d="m892.24,657.13c.58,0,1.05-.47,1.05-1.05s-.47-1.05-1.05-1.05-1.05.47-1.05,1.05.47,1.05,1.05,1.05Z" style="fill:#fff;"></path><path d="m882,679.61c1.26,0,2.28-1.02,2.28-2.28s-1.02-2.27-2.28-2.27-2.27,1.02-2.27,2.27,1.01,2.28,2.27,2.28Z" style="fill:#fff;"></path><path d="m870.51,699.78c1.01,0,1.83-.83,1.83-1.84s-.82-1.83-1.83-1.83-1.83.82-1.83,1.83.82,1.84,1.83,1.84Z" style="fill:#fff;"></path><path d="m857.81,718.61c.44,0,.79-.35.79-.78s-.35-.79-.79-.79-.78.36-.78.79.36.78.78.78Z" style="fill:#fff;"></path><path d="m843.94,738.31c.77,0,1.4-.62,1.4-1.4s-.63-1.4-1.4-1.4-1.4.63-1.4,1.4.62,1.4,1.4,1.4Z" style="fill:#fff;"></path><path d="m828.96,756.44c.72,0,1.31-.59,1.31-1.31s-.59-1.31-1.31-1.31-1.32.59-1.32,1.31.59,1.31,1.32,1.31Z" style="fill:#fff;"></path><path d="m812.92,773.74c.72,0,1.31-.59,1.31-1.31s-.59-1.31-1.31-1.31-1.32.59-1.32,1.31.59,1.31,1.32,1.31Z" style="fill:#fff;"></path><path d="m795.86,790.92c1.21,0,2.19-.98,2.19-2.18s-.98-2.19-2.19-2.19-2.18.98-2.18,2.19.98,2.18,2.18,2.18Z" style="fill:#fff;"></path><path d="m777.86,806.43c1.35,0,2.45-1.1,2.45-2.45s-1.1-2.45-2.45-2.45-2.44,1.1-2.44,2.45,1.1,2.45,2.44,2.45Z" style="fill:#fff;"></path><path d="m758.98,821.46c1.84,0,3.33-1.49,3.33-3.32s-1.48-3.33-3.33-3.33-3.32,1.49-3.32,3.33,1.48,3.32,3.32,3.32Z" style="fill:#fff;"></path><path d="m739.3,834.46c1.83,0,3.32-1.49,3.32-3.33s-1.48-3.33-3.32-3.33-3.33,1.49-3.33,3.33,1.49,3.33,3.33,3.33Z" style="fill:#fff;"></path><path d="m718.87,847.91c2.75,0,4.99-2.23,4.99-4.99s-2.24-4.98-4.99-4.98-4.99,2.23-4.99,4.98,2.23,4.99,4.99,4.99Z" style="fill:#fff;"></path><circle cx="697.76" cy="853.48" r="4.46" style="fill:#fff;"></circle><path d="m676.07,866.51c2.08,0,3.76-1.68,3.76-3.76s-1.68-3.76-3.76-3.76-3.76,1.68-3.76,3.76,1.69,3.76,3.76,3.76Z" style="fill:#fff;"></path><path d="m653.86,874.48c2.08,0,3.76-1.69,3.76-3.76s-1.68-3.76-3.76-3.76-3.76,1.67-3.76,3.76,1.67,3.76,3.76,3.76Z" style="fill:#fff;"></path><path d="m631.22,881.09c2.08,0,3.76-1.68,3.76-3.76s-1.68-3.76-3.76-3.76-3.76,1.69-3.76,3.76,1.68,3.76,3.76,3.76Z" style="fill:#fff;"></path><path d="m608.21,885.64c1.7,0,3.06-1.38,3.06-3.07s-1.36-3.06-3.06-3.06-3.06,1.37-3.06,3.06,1.37,3.07,3.06,3.07Z" style="fill:#fff;"></path><path d="m584.94,889.33c1.6,0,2.89-1.29,2.89-2.89s-1.29-2.88-2.89-2.88-2.88,1.29-2.88,2.88,1.29,2.89,2.88,2.89Z" style="fill:#fff;"></path><path d="m561.47,892.06c1.74,0,3.15-1.42,3.15-3.15s-1.41-3.15-3.15-3.15-3.14,1.4-3.14,3.15,1.41,3.15,3.14,3.15Z" style="fill:#fff;"></path><path d="m537.91,893.47c1.93,0,3.49-1.57,3.49-3.5s-1.57-3.5-3.49-3.5-3.5,1.56-3.5,3.5,1.56,3.5,3.5,3.5Z" style="fill:#fff;"></path><path d="m514.32,894.07c2.46,0,4.45-2,4.45-4.46s-1.99-4.46-4.45-4.46-4.46,2-4.46,4.46,1.99,4.46,4.46,4.46Z" style="fill:#fff;"></path><path d="m490.79,892.31c2.47,0,4.46-1.99,4.46-4.46s-1.99-4.46-4.46-4.46-4.46,2-4.46,4.46,1.99,4.46,4.46,4.46Z" style="fill:#fff;"></path><path d="m467.42,889.58c2.7,0,4.89-2.19,4.89-4.89s-2.19-4.9-4.89-4.9-4.9,2.19-4.9,4.9,2.2,4.89,4.9,4.89Z" style="fill:#fff;"></path><path d="m444.27,885.55c2.99,0,5.42-2.43,5.42-5.42s-2.43-5.42-5.42-5.42-5.43,2.43-5.43,5.42,2.43,5.42,5.43,5.42Z" style="fill:#fff;"></path><path d="m421.43,879.61c3,0,5.43-2.43,5.43-5.42s-2.43-5.42-5.43-5.42-5.42,2.43-5.42,5.42,2.43,5.42,5.42,5.42Z" style="fill:#fff;"></path><path d="m399,873.02c3.38,0,6.12-2.74,6.12-6.12s-2.74-6.13-6.12-6.13-6.12,2.74-6.12,6.13,2.74,6.12,6.12,6.12Z" style="fill:#fff;"></path><path d="m377.04,864.14c3.24,0,5.86-2.62,5.86-5.87s-2.63-5.86-5.86-5.86-5.86,2.63-5.86,5.86,2.63,5.87,5.86,5.87Z" style="fill:#fff;"></path><path d="m355.63,855.19c3.77,0,6.82-3.06,6.82-6.82s-3.05-6.82-6.82-6.82-6.82,3.05-6.82,6.82,3.05,6.82,6.82,6.82Z" style="fill:#fff;"></path><path d="m334.85,843.31c3.39,0,6.13-2.74,6.13-6.12s-2.74-6.13-6.13-6.13-6.12,2.75-6.12,6.13,2.75,6.12,6.12,6.12Z" style="fill:#fff;"></path><path d="m314.78,831.25c3.58,0,6.48-2.9,6.48-6.47s-2.9-6.47-6.48-6.47-6.47,2.9-6.47,6.47,2.9,6.47,6.47,6.47Z" style="fill:#fff;"></path><circle cx="295.49" cy="811.2" r="5.86" style="fill:#fff;"></circle><path d="m277.05,803.57c3.91,0,7.09-3.17,7.09-7.08s-3.17-7.08-7.09-7.08-7.09,3.17-7.09,7.08,3.17,7.08,7.09,7.08Z" style="fill:#fff;"></path><path d="m259.52,787.18c3.57,0,6.47-2.9,6.47-6.47s-2.9-6.47-6.47-6.47-6.48,2.9-6.48,6.47,2.9,6.47,6.48,6.47Z" style="fill:#fff;"></path><path d="m242.95,770.37c3.58,0,6.48-2.9,6.48-6.47s-2.9-6.47-6.48-6.47-6.47,2.9-6.47,6.47,2.9,6.47,6.47,6.47Z" style="fill:#fff;"></path><path d="m227.43,750.77c2.57,0,4.64-2.08,4.64-4.64s-2.08-4.64-4.64-4.64-4.64,2.07-4.64,4.64,2.08,4.64,4.64,4.64Z" style="fill:#fff;"></path><path d="m213,731.23c2.08,0,3.77-1.68,3.77-3.76s-1.69-3.76-3.77-3.76-3.76,1.68-3.76,3.76,1.69,3.76,3.76,3.76Z" style="fill:#fff;"></path><circle cx="199.72" cy="707.98" r="4.03" style="fill:#fff;"></circle><path d="m187.61,691.75c2.22,0,4.02-1.8,4.02-4.03s-1.8-4.03-4.02-4.03-4.03,1.8-4.03,4.03,1.8,4.03,4.03,4.03Z" style="fill:#fff;"></path><path d="m176.75,670.19c1.88,0,3.41-1.53,3.41-3.41s-1.53-3.41-3.41-3.41-3.42,1.53-3.42,3.41,1.53,3.41,3.42,3.41Z" style="fill:#fff;"></path><path d="m167.15,648.03c1.55,0,2.79-1.25,2.79-2.8s-1.25-2.8-2.79-2.8-2.79,1.25-2.79,2.8,1.25,2.8,2.79,2.8Z" style="fill:#fff;"></path><path d="m158.86,625.42c1.26,0,2.28-1.02,2.28-2.28s-1.02-2.27-2.28-2.27-2.28,1.02-2.28,2.27,1.02,2.28,2.28,2.28Z" style="fill:#fff;"></path><path d="m151.9,603.39c1.55,0,2.8-1.25,2.8-2.8s-1.25-2.8-2.8-2.8-2.79,1.25-2.79,2.8,1.25,2.8,2.79,2.8Z" style="fill:#fff;"></path><path d="m146.32,579.51c1.01,0,1.83-.82,1.83-1.84s-.82-1.83-1.83-1.83-1.83.82-1.83,1.83.81,1.84,1.83,1.84Z" style="fill:#fff;"></path><path d="m142.1,556.31c1.02,0,1.84-.83,1.84-1.84s-.82-1.83-1.84-1.83-1.83.82-1.83,1.83.82,1.84,1.83,1.84Z" style="fill:#fff;"></path><path d="m139.28,532.97c1.07,0,1.93-.86,1.93-1.93s-.86-1.92-1.93-1.92-1.93.86-1.93,1.92.87,1.93,1.93,1.93Z" style="fill:#fff;"></path><path d="m137.87,509.33c1.01,0,1.83-.82,1.83-1.84s-.82-1.83-1.83-1.83-1.83.82-1.83,1.83.82,1.84,1.83,1.84Z" style="fill:#fff;"></path><path d="m137.87,485.56c.92,0,1.66-.75,1.66-1.67s-.74-1.66-1.66-1.66-1.66.75-1.66,1.66.74,1.67,1.66,1.67Z" style="fill:#fff;"></path><path d="m139.28,461.66c.73,0,1.31-.59,1.31-1.31s-.58-1.31-1.31-1.31-1.31.59-1.31,1.31.59,1.31,1.31,1.31Z" style="fill:#fff;"></path><path d="m142.1,438.33c.78,0,1.4-.63,1.4-1.4s-.62-1.4-1.4-1.4-1.39.62-1.39,1.4.62,1.4,1.39,1.4Z" style="fill:#fff;"></path><path d="m146.32,415.02c.72,0,1.31-.59,1.31-1.31s-.59-1.31-1.31-1.31-1.32.59-1.32,1.31.59,1.31,1.32,1.31Z" style="fill:#fff;"></path><path d="m151.91,392.1c.72,0,1.31-.59,1.31-1.31s-.59-1.31-1.31-1.31-1.32.59-1.32,1.31.59,1.31,1.32,1.31Z" style="fill:#fff;"></path><path d="m158.86,369.13c.49,0,.88-.4.88-.88s-.39-.87-.88-.87-.88.39-.88.87.4.88.88.88Z" style="fill:#fff;"></path><path d="m167.15,347.21c.58,0,1.05-.47,1.05-1.05s-.47-1.05-1.05-1.05-1.05.47-1.05,1.05.47,1.05,1.05,1.05Z" style="fill:#fff;"></path><path d="m176.75,326.19c.86,0,1.57-.71,1.57-1.58s-.71-1.58-1.57-1.58-1.58.7-1.58,1.58.71,1.58,1.58,1.58Z" style="fill:#fff;"></path><path d="m187.61,304.45c.43,0,.79-.35.79-.78s-.36-.78-.79-.78-.78.35-.78.78.35.78.78.78Z" style="fill:#fff;"></path><path d="m199.72,284.2c.43,0,.78-.35.78-.79s-.35-.79-.78-.79-.79.35-.79.79.36.79.79.79Z" style="fill:#fff;"></path><path d="m213,264.18c.15,0,.27-.11.27-.26s-.11-.27-.27-.27c-.14,0-.26.12-.26.27s.12.26.26.26Z" style="fill:#fff;"></path><path d="m227.44,245.61c.19,0,.35-.16.35-.35s-.16-.35-.35-.35-.35.16-.35.35.15.35.35.35Z" style="fill:#fff;"></path><path d="m949.97,543.31c.29,0,.53-.24.53-.53s-.24-.52-.53-.52-.53.23-.53.52.24.53.53.53Z" style="fill:#fff;"></path><path d="m946.67,566.94c.43,0,.78-.35.78-.79s-.35-.78-.78-.78-.79.35-.79.78.36.79.79.79Z" style="fill:#fff;"></path><path d="m942.07,589.9c.34,0,.62-.27.62-.61s-.27-.61-.62-.61-.61.27-.61.61.27.61.61.61Z" style="fill:#fff;"></path><path d="m936.17,613.18c.58,0,1.05-.47,1.05-1.05s-.47-1.05-1.05-1.05-1.05.47-1.05,1.05.47,1.05,1.05,1.05Z" style="fill:#fff;"></path><path d="m929.01,636.62c1.11,0,2.02-.9,2.02-2.01s-.91-2.01-2.02-2.01-2.01.9-2.01,2.01.9,2.01,2.01,2.01Z" style="fill:#fff;"></path><path d="m920.6,659.71c1.69,0,3.06-1.37,3.06-3.06s-1.37-3.06-3.06-3.06-3.06,1.37-3.06,3.06,1.37,3.06,3.06,3.06Z" style="fill:#fff;"></path><path d="m910.96,681.6c1.88,0,3.41-1.52,3.41-3.41s-1.53-3.41-3.41-3.41-3.41,1.53-3.41,3.41,1.52,3.41,3.41,3.41Z" style="fill:#fff;"></path><path d="m900.14,703.96c2.66,0,4.8-2.15,4.8-4.81s-2.15-4.81-4.8-4.81-4.81,2.15-4.81,4.81,2.15,4.81,4.81,4.81Z" style="fill:#fff;"></path><path d="m888.15,721.48c1.1,0,2.01-.9,2.01-2.02s-.91-2.01-2.01-2.01-2.02.9-2.02,2.01.91,2.02,2.02,2.02Z" style="fill:#fff;"></path><path d="m875.04,741.36c1.26,0,2.27-1.01,2.27-2.28s-1.01-2.27-2.27-2.27-2.28,1.02-2.28,2.27,1.02,2.28,2.28,2.28Z" style="fill:#fff;"></path><path d="m860.85,759.34c.78,0,1.4-.63,1.4-1.4s-.62-1.4-1.4-1.4-1.4.63-1.4,1.4.63,1.4,1.4,1.4Z" style="fill:#fff;"></path><path d="m845.63,778.24c1.26,0,2.27-1.02,2.27-2.28s-1.01-2.27-2.27-2.27-2.28,1.02-2.28,2.27,1.02,2.28,2.28,2.28Z" style="fill:#fff;"></path><circle cx="829.42" cy="793.11" r="2.88" style="fill:#fff;"></circle><path d="m812.28,811.5c1.21,0,2.19-.97,2.19-2.18s-.98-2.18-2.19-2.18-2.18.98-2.18,2.18.97,2.18,2.18,2.18Z" style="fill:#fff;"></path><path d="m794.25,828.91c2.42,0,4.38-1.96,4.38-4.37s-1.96-4.38-4.38-4.38-4.37,1.96-4.37,4.38,1.96,4.37,4.37,4.37Z" style="fill:#fff;"></path><path d="m775.4,843.1c2.41,0,4.38-1.96,4.38-4.38s-1.96-4.37-4.38-4.37-4.38,1.96-4.38,4.37,1.96,4.38,4.38,4.38Z" style="fill:#fff;"></path><path d="m755.79,856.29c2.47,0,4.46-1.99,4.46-4.46s-1.99-4.46-4.46-4.46-4.46,2-4.46,4.46,1.99,4.46,4.46,4.46Z" style="fill:#fff;"></path><path d="m735.46,868.8c2.76,0,4.99-2.23,4.99-4.99s-2.24-4.99-4.99-4.99-4.99,2.23-4.99,4.99,2.24,4.99,4.99,4.99Z" style="fill:#fff;"></path><path d="m714.5,880.77c3.38,0,6.13-2.74,6.13-6.13s-2.75-6.12-6.13-6.12-6.12,2.74-6.12,6.12,2.74,6.13,6.12,6.13Z" style="fill:#fff;"></path><path d="m692.97,889.35c2.8,0,5.08-2.27,5.08-5.07s-2.28-5.07-5.08-5.07-5.08,2.27-5.08,5.07,2.28,5.07,5.08,5.07Z" style="fill:#fff;"></path><path d="m670.93,897.33c2.56,0,4.64-2.07,4.64-4.64s-2.08-4.64-4.64-4.64-4.64,2.07-4.64,4.64,2.08,4.64,4.64,4.64Z" style="fill:#fff;"></path><path d="m648.44,904.85c2.76,0,4.99-2.23,4.99-4.99s-2.23-4.99-4.99-4.99-4.98,2.23-4.98,4.99,2.23,4.99,4.98,4.99Z" style="fill:#fff;"></path><path d="m625.61,911.17c2.99,0,5.42-2.43,5.42-5.42s-2.43-5.43-5.42-5.43-5.43,2.43-5.43,5.43,2.43,5.42,5.43,5.42Z" style="fill:#fff;"></path><path d="m602.47,915.43c2.8,0,5.08-2.27,5.08-5.07s-2.28-5.07-5.08-5.07-5.08,2.27-5.08,5.07,2.28,5.07,5.08,5.07Z" style="fill:#fff;"></path><circle cx="579.1" cy="913.65" r="5.08" style="fill:#fff;"></circle><path d="m555.59,921.5c3.24,0,5.87-2.62,5.87-5.86s-2.63-5.86-5.87-5.86-5.85,2.63-5.85,5.86,2.62,5.86,5.85,5.86Z" style="fill:#fff;"></path><path d="m532.02,922.16c3.23,0,5.86-2.62,5.86-5.86s-2.63-5.86-5.86-5.86-5.87,2.62-5.87,5.86,2.63,5.86,5.87,5.86Z" style="fill:#fff;"></path><path d="m508.42,921.85c3.43,0,6.21-2.78,6.21-6.21s-2.78-6.21-6.21-6.21-6.2,2.78-6.2,6.21,2.78,6.21,6.2,6.21Z" style="fill:#fff;"></path><path d="m484.92,919.69c3.33,0,6.04-2.7,6.04-6.04s-2.7-6.03-6.04-6.03-6.04,2.7-6.04,6.03,2.7,6.04,6.04,6.04Z" style="fill:#fff;"></path><path d="m461.56,917.18c3.77,0,6.83-3.06,6.83-6.82s-3.06-6.82-6.83-6.82-6.82,3.06-6.82,6.82,3.05,6.82,6.82,6.82Z" style="fill:#fff;"></path><path d="m438.42,912.14c3.52,0,6.38-2.86,6.38-6.38s-2.85-6.39-6.38-6.39-6.39,2.86-6.39,6.39,2.85,6.38,6.39,6.38Z" style="fill:#fff;"></path><path d="m415.58,906.42c3.62,0,6.55-2.94,6.55-6.56s-2.93-6.56-6.55-6.56-6.56,2.94-6.56,6.56,2.94,6.56,6.56,6.56Z" style="fill:#fff;"></path><path d="m393.09,899.08c3.53,0,6.39-2.86,6.39-6.39s-2.86-6.38-6.39-6.38-6.38,2.85-6.38,6.38,2.85,6.39,6.38,6.39Z" style="fill:#fff;"></path><path d="m371.05,890.67c3.52,0,6.39-2.86,6.39-6.39s-2.86-6.38-6.39-6.38-6.39,2.86-6.39,6.38,2.86,6.39,6.39,6.39Z" style="fill:#fff;"></path><path d="m349.52,881.47c3.77,0,6.82-3.05,6.82-6.82s-3.05-6.82-6.82-6.82-6.82,3.05-6.82,6.82,3.05,6.82,6.82,6.82Z" style="fill:#fff;"></path><path d="m328.56,870.64c3.76,0,6.81-3.05,6.81-6.82s-3.05-6.82-6.81-6.82-6.82,3.05-6.82,6.82,3.05,6.82,6.82,6.82Z" style="fill:#fff;"></path><path d="m308.24,859.18c4.06,0,7.35-3.29,7.35-7.35s-3.28-7.35-7.35-7.35-7.35,3.29-7.35,7.35,3.29,7.35,7.35,7.35Z" style="fill:#fff;"></path><path d="m288.62,845.19c3.58,0,6.47-2.9,6.47-6.47s-2.89-6.47-6.47-6.47-6.47,2.9-6.47,6.47,2.9,6.47,6.47,6.47Z" style="fill:#fff;"></path><path d="m269.77,831.36c3.77,0,6.82-3.06,6.82-6.82s-3.05-6.82-6.82-6.82-6.83,3.05-6.83,6.82,3.06,6.82,6.83,6.82Z" style="fill:#fff;"></path><circle cx="251.75" cy="809.31" r="7.26" style="fill:#fff;"></circle><path d="m234.6,800.63c4.15,0,7.52-3.36,7.52-7.52s-3.37-7.52-7.52-7.52-7.53,3.36-7.53,7.52,3.37,7.52,7.53,7.52Z" style="fill:#fff;"></path><path d="m218.39,783.22c4.02,0,7.26-3.25,7.26-7.26s-3.24-7.26-7.26-7.26-7.25,3.25-7.25,7.26,3.25,7.26,7.25,7.26Z" style="fill:#fff;"></path><path d="m203.17,764.15c3.43,0,6.21-2.78,6.21-6.21s-2.79-6.21-6.21-6.21-6.21,2.78-6.21,6.21,2.78,6.21,6.21,6.21Z" style="fill:#fff;"></path><path d="m188.98,745.3c3.43,0,6.21-2.78,6.21-6.22s-2.78-6.21-6.21-6.21-6.21,2.78-6.21,6.21,2.79,6.22,6.21,6.22Z" style="fill:#fff;"></path><path d="m175.88,725.59c3.38,0,6.12-2.74,6.12-6.13s-2.74-6.12-6.12-6.12-6.13,2.74-6.13,6.12,2.74,6.13,6.13,6.13Z" style="fill:#fff;"></path><path d="m163.88,703.61c2.47,0,4.47-1.99,4.47-4.46s-2-4.46-4.47-4.46-4.45,1.99-4.45,4.46,1.99,4.46,4.45,4.46Z" style="fill:#fff;"></path><path d="m153.06,683c2.66,0,4.82-2.15,4.82-4.81s-2.16-4.81-4.82-4.81-4.81,2.15-4.81,4.81,2.15,4.81,4.81,4.81Z" style="fill:#fff;"></path><path d="m143.42,661.46c2.66,0,4.81-2.15,4.81-4.81s-2.15-4.81-4.81-4.81-4.81,2.16-4.81,4.81,2.15,4.81,4.81,4.81Z" style="fill:#fff;"></path><path d="m135.01,638.46c2.12,0,3.85-1.73,3.85-3.85s-1.73-3.85-3.85-3.85-3.84,1.72-3.84,3.85,1.72,3.85,3.84,3.85Z" style="fill:#fff;"></path><path d="m127.85,616.34c2.31,0,4.2-1.88,4.2-4.2s-1.89-4.2-4.2-4.2-4.19,1.88-4.19,4.2,1.87,4.2,4.19,4.2Z" style="fill:#fff;"></path><path d="m121.96,592.35c1.69,0,3.06-1.37,3.06-3.06s-1.37-3.06-3.06-3.06-3.07,1.37-3.07,3.06,1.38,3.06,3.07,3.06Z" style="fill:#fff;"></path><path d="m117.35,568.95c1.55,0,2.8-1.26,2.8-2.8s-1.26-2.79-2.8-2.79-2.8,1.25-2.8,2.79,1.26,2.8,2.8,2.8Z" style="fill:#fff;"></path><path d="m114.05,545.68c1.59,0,2.88-1.29,2.88-2.89s-1.29-2.88-2.88-2.88-2.89,1.29-2.89,2.88,1.29,2.89,2.89,2.89Z" style="fill:#fff;"></path><path d="m112.08,522.08c1.55,0,2.79-1.26,2.79-2.8s-1.25-2.8-2.79-2.8-2.8,1.26-2.8,2.8,1.25,2.8,2.8,2.8Z" style="fill:#fff;"></path><path d="m111.41,498.58c1.6,0,2.89-1.29,2.89-2.88s-1.29-2.88-2.89-2.88-2.88,1.29-2.88,2.88,1.29,2.88,2.88,2.88Z" style="fill:#fff;"></path><path d="m112.08,474.3c1.2,0,2.18-.97,2.18-2.18s-.98-2.19-2.18-2.19-2.19.98-2.19,2.19.98,2.18,2.19,2.18Z" style="fill:#fff;"></path><path d="m114.05,450.79c1.21,0,2.18-.98,2.18-2.19s-.97-2.18-2.18-2.18-2.18.98-2.18,2.18.97,2.19,2.18,2.19Z" style="fill:#fff;"></path><path d="m117.35,427.43c1.21,0,2.18-.98,2.18-2.18s-.97-2.18-2.18-2.18-2.18.97-2.18,2.18.98,2.18,2.18,2.18Z" style="fill:#fff;"></path><circle cx="121.96" cy="402.1" r="1.58" style="fill:#fff;"></circle><path d="m127.85,381.18c1.06,0,1.93-.86,1.93-1.93s-.87-1.93-1.93-1.93-1.93.86-1.93,1.93.86,1.93,1.93,1.93Z" style="fill:#fff;"></path><path d="m135.01,357.91c.62,0,1.13-.51,1.13-1.13s-.51-1.14-1.13-1.14-1.13.51-1.13,1.14.5,1.13,1.13,1.13Z" style="fill:#fff;"></path><path d="m143.42,335.61c.49,0,.88-.39.88-.87s-.39-.87-.88-.87-.87.39-.87.87.39.87.87.87Z" style="fill:#fff;"></path><path d="m153.06,314.34c.63,0,1.14-.51,1.14-1.13s-.51-1.14-1.14-1.14-1.13.51-1.13,1.14.51,1.13,1.13,1.13Z" style="fill:#fff;"></path><path d="m163.88,293.38c.63,0,1.14-.51,1.14-1.14s-.51-1.14-1.14-1.14-1.13.51-1.13,1.14.51,1.14,1.13,1.14Z" style="fill:#fff;"></path><path d="m175.88,272.27c.19,0,.35-.16.35-.35s-.16-.35-.35-.35-.36.15-.36.35.16.35.36.35Z" style="fill:#fff;"></path><path d="m188.98,252.39c.05,0,.09-.04.09-.08,0-.05-.04-.09-.09-.09-.05,0-.08.04-.08.09,0,.05.04.08.08.08Z" style="fill:#fff;"></path><path d="m968.97,590.26c.49,0,.88-.4.88-.88s-.4-.88-.88-.88-.87.39-.87.88.39.88.87.88Z" style="fill:#fff;"></path><path d="m963.42,613.1c.43,0,.78-.35.78-.79s-.35-.79-.78-.79-.78.35-.78.79.35.79.78.79Z" style="fill:#fff;"></path><path d="m956.67,635.44c.29,0,.52-.24.52-.52s-.23-.53-.52-.53-.52.24-.52.53.24.52.52.52Z" style="fill:#fff;"></path><path d="m948.73,657.66c.29,0,.53-.24.53-.53s-.24-.52-.53-.52-.53.23-.53.52.24.53.53.53Z" style="fill:#fff;"></path><path d="m939.62,681.96c1.69,0,3.06-1.37,3.06-3.06s-1.37-3.07-3.06-3.07-3.06,1.37-3.06,3.07,1.37,3.06,3.06,3.06Z" style="fill:#fff;"></path><path d="m929.38,705.06c2.71,0,4.9-2.2,4.9-4.9s-2.19-4.9-4.9-4.9-4.89,2.2-4.89,4.9,2.19,4.9,4.89,4.9Z" style="fill:#fff;"></path><path d="m918.04,724.86c2.22,0,4.03-1.8,4.03-4.02s-1.8-4.03-4.03-4.03-4.02,1.8-4.02,4.03,1.8,4.02,4.02,4.02Z" style="fill:#fff;"></path><path d="m905.62,744.93c2.23,0,4.03-1.8,4.03-4.02s-1.8-4.02-4.03-4.02-4.02,1.8-4.02,4.02,1.8,4.02,4.02,4.02Z" style="fill:#fff;"></path><path d="m892.16,762.55c1.26,0,2.28-1.02,2.28-2.28s-1.02-2.28-2.28-2.28-2.27,1.02-2.27,2.28,1.01,2.28,2.27,2.28Z" style="fill:#fff;"></path><path d="m877.7,782.41c1.93,0,3.5-1.56,3.5-3.5s-1.57-3.5-3.5-3.5-3.5,1.56-3.5,3.5,1.57,3.5,3.5,3.5Z" style="fill:#fff;"></path><path d="m862.27,800.26c1.93,0,3.5-1.57,3.5-3.5s-1.57-3.49-3.5-3.49-3.5,1.56-3.5,3.49,1.57,3.5,3.5,3.5Z" style="fill:#fff;"></path><path d="m845.92,817.27c1.93,0,3.49-1.56,3.49-3.5s-1.56-3.5-3.49-3.5-3.5,1.57-3.5,3.5,1.56,3.5,3.5,3.5Z" style="fill:#fff;"></path><path d="m828.69,834.28c2.42,0,4.38-1.96,4.38-4.38s-1.96-4.38-4.38-4.38-4.37,1.96-4.37,4.38,1.96,4.38,4.37,4.38Z" style="fill:#fff;"></path><path d="m810.64,850.77c3.14,0,5.69-2.55,5.69-5.69s-2.54-5.69-5.69-5.69-5.69,2.55-5.69,5.69,2.55,5.69,5.69,5.69Z" style="fill:#fff;"></path><path d="m791.81,864.99c3.14,0,5.69-2.54,5.69-5.69s-2.54-5.69-5.69-5.69-5.69,2.55-5.69,5.69,2.55,5.69,5.69,5.69Z" style="fill:#fff;"></path><path d="m772.27,878.9c3.52,0,6.39-2.86,6.39-6.39s-2.86-6.39-6.39-6.39-6.39,2.86-6.39,6.39,2.85,6.39,6.39,6.39Z" style="fill:#fff;"></path><path d="m752.04,891.14c3.58,0,6.48-2.9,6.48-6.47s-2.9-6.47-6.48-6.47-6.47,2.9-6.47,6.47,2.89,6.47,6.47,6.47Z" style="fill:#fff;"></path><path d="m731.21,902.65c3.82,0,6.91-3.1,6.91-6.91s-3.09-6.91-6.91-6.91-6.9,3.09-6.9,6.91,3.09,6.91,6.9,6.91Z" style="fill:#fff;"></path><path d="m709.82,912.6c3.82,0,6.91-3.09,6.91-6.91s-3.09-6.91-6.91-6.91-6.9,3.09-6.9,6.91,3.09,6.91,6.9,6.91Z" style="fill:#fff;"></path><path d="m687.93,921.5c3.87,0,7-3.13,7-7s-3.13-7-7-7-7,3.13-7,7,3.14,7,7,7Z" style="fill:#fff;"></path><path d="m665.61,930.02c4.35,0,7.88-3.52,7.88-7.87s-3.52-7.87-7.88-7.87-7.87,3.52-7.87,7.87,3.52,7.87,7.87,7.87Z" style="fill:#fff;"></path><path d="m642.92,936.04c4.11,0,7.44-3.33,7.44-7.43s-3.33-7.44-7.44-7.44-7.44,3.33-7.44,7.44,3.33,7.43,7.44,7.43Z" style="fill:#fff;"></path><path d="m619.91,940.85c3.87,0,7-3.13,7-7s-3.14-7-7-7-6.99,3.14-6.99,7,3.13,7,6.99,7Z" style="fill:#fff;"></path><path d="m596.67,944.01c3.38,0,6.12-2.74,6.12-6.12s-2.74-6.12-6.12-6.12-6.13,2.74-6.13,6.12,2.74,6.12,6.13,6.12Z" style="fill:#fff;"></path><path d="m573.25,947.59c3.81,0,6.9-3.09,6.9-6.91s-3.09-6.91-6.9-6.91-6.92,3.09-6.92,6.91,3.1,6.91,6.92,6.91Z" style="fill:#fff;"></path><path d="m549.7,949.41c3.97,0,7.18-3.21,7.18-7.17s-3.21-7.17-7.18-7.17-7.17,3.21-7.17,7.17,3.21,7.17,7.17,7.17Z" style="fill:#fff;"></path><path d="m526.12,949.72c3.96,0,7.17-3.22,7.17-7.17s-3.21-7.17-7.17-7.17-7.18,3.21-7.18,7.17,3.21,7.17,7.18,7.17Z" style="fill:#fff;"></path><path d="m502.54,949.22c4.2,0,7.6-3.41,7.6-7.61s-3.4-7.61-7.6-7.61-7.61,3.41-7.61,7.61,3.41,7.61,7.61,7.61Z" style="fill:#fff;"></path><path d="m479.05,946.08c3.67,0,6.65-2.98,6.65-6.65s-2.98-6.65-6.65-6.65-6.65,2.98-6.65,6.65,2.98,6.65,6.65,6.65Z" style="fill:#fff;"></path><path d="m455.7,942.58c3.62,0,6.56-2.94,6.56-6.56s-2.94-6.56-6.56-6.56-6.56,2.94-6.56,6.56,2.94,6.56,6.56,6.56Z" style="fill:#fff;"></path><path d="m432.57,938.64c4.01,0,7.26-3.25,7.26-7.26s-3.25-7.26-7.26-7.26-7.25,3.25-7.25,7.26,3.24,7.26,7.25,7.26Z" style="fill:#fff;"></path><path d="m409.72,933.66c4.49,0,8.14-3.64,8.14-8.14s-3.65-8.13-8.14-8.13-8.14,3.64-8.14,8.13,3.64,8.14,8.14,8.14Z" style="fill:#fff;"></path><path d="m387.2,926.08c4.2,0,7.61-3.41,7.61-7.61s-3.41-7.61-7.61-7.61-7.6,3.41-7.6,7.61,3.4,7.61,7.6,7.61Z" style="fill:#fff;"></path><path d="m365.09,917.68c4.11,0,7.44-3.33,7.44-7.43s-3.33-7.43-7.44-7.43-7.43,3.33-7.43,7.43,3.33,7.43,7.43,7.43Z" style="fill:#fff;"></path><path d="m343.44,908.29c4.11,0,7.44-3.33,7.44-7.44s-3.33-7.43-7.44-7.43-7.44,3.33-7.44,7.43,3.33,7.44,7.44,7.44Z" style="fill:#fff;"></path><path d="m322.33,897.6c4.01,0,7.26-3.25,7.26-7.26s-3.25-7.26-7.26-7.26-7.26,3.25-7.26,7.26,3.25,7.26,7.26,7.26Z" style="fill:#fff;"></path><path d="m301.79,887.12c4.64,0,8.4-3.76,8.4-8.4s-3.75-8.4-8.4-8.4-8.4,3.76-8.4,8.4,3.76,8.4,8.4,8.4Z" style="fill:#fff;"></path><path d="m281.9,873.91c4.35,0,7.87-3.52,7.87-7.87s-3.52-7.87-7.87-7.87-7.87,3.52-7.87,7.87,3.52,7.87,7.87,7.87Z" style="fill:#fff;"></path><path d="m262.7,860.2c4.35,0,7.87-3.52,7.87-7.87s-3.52-7.87-7.87-7.87-7.87,3.52-7.87,7.87,3.52,7.87,7.87,7.87Z" style="fill:#fff;"></path><path d="m244.26,844.7c3.91,0,7.09-3.17,7.09-7.08s-3.17-7.08-7.09-7.08-7.09,3.17-7.09,7.08,3.17,7.08,7.09,7.08Z" style="fill:#fff;"></path><path d="m226.61,829.47c4.16,0,7.52-3.37,7.52-7.52s-3.36-7.52-7.52-7.52-7.52,3.37-7.52,7.52,3.36,7.52,7.52,7.52Z" style="fill:#fff;"></path><path d="m209.82,812.9c4.16,0,7.52-3.36,7.52-7.52s-3.36-7.52-7.52-7.52-7.52,3.37-7.52,7.52,3.37,7.52,7.52,7.52Z" style="fill:#fff;"></path><path d="m193.92,794.68c3.72,0,6.74-3.01,6.74-6.73s-3.01-6.73-6.74-6.73-6.74,3.01-6.74,6.73,3.01,6.73,6.74,6.73Z" style="fill:#fff;"></path><path d="m178.97,777.13c4.1,0,7.44-3.33,7.44-7.43s-3.33-7.44-7.44-7.44-7.44,3.33-7.44,7.44,3.33,7.43,7.44,7.43Z" style="fill:#fff;"></path><path d="m165,757.15c3.58,0,6.47-2.89,6.47-6.47s-2.89-6.47-6.47-6.47-6.47,2.9-6.47,6.47,2.89,6.47,6.47,6.47Z" style="fill:#fff;"></path><path d="m152.06,736.64c3.14,0,5.69-2.55,5.69-5.69s-2.54-5.69-5.69-5.69-5.68,2.54-5.68,5.69,2.54,5.69,5.68,5.69Z" style="fill:#fff;"></path><path d="m140.17,716.26c3.14,0,5.69-2.55,5.69-5.68s-2.55-5.69-5.69-5.69-5.69,2.54-5.69,5.69,2.54,5.68,5.69,5.68Z" style="fill:#fff;"></path><path d="m129.38,693.62c2.22,0,4.02-1.8,4.02-4.02s-1.8-4.03-4.02-4.03-4.03,1.8-4.03,4.03,1.8,4.02,4.03,4.02Z" style="fill:#fff;"></path><path d="m119.7,672.45c2.42,0,4.38-1.96,4.38-4.37s-1.96-4.38-4.38-4.38-4.37,1.96-4.37,4.38,1.96,4.37,4.37,4.37Z" style="fill:#fff;"></path><path d="m111.19,649.4c1.83,0,3.32-1.48,3.32-3.32s-1.48-3.33-3.32-3.33-3.33,1.48-3.33,3.33,1.49,3.32,3.33,3.32Z" style="fill:#fff;"></path><path d="m103.83,626.37c1.5,0,2.71-1.21,2.71-2.71s-1.21-2.71-2.71-2.71-2.71,1.21-2.71,2.71,1.21,2.71,2.71,2.71Z" style="fill:#fff;"></path><path d="m97.68,603.07c1.2,0,2.18-.98,2.18-2.18s-.97-2.19-2.18-2.19-2.19.98-2.19,2.19.97,2.18,2.19,2.18Z" style="fill:#fff;"></path><path d="m92.73,580c1.21,0,2.19-.98,2.19-2.18s-.98-2.19-2.19-2.19-2.18.98-2.18,2.19.98,2.18,2.18,2.18Z" style="fill:#fff;"></path><path d="m89.01,557.58c1.69,0,3.06-1.37,3.06-3.06s-1.37-3.06-3.06-3.06-3.07,1.37-3.07,3.06,1.38,3.06,3.07,3.06Z" style="fill:#fff;"></path><path d="m86.52,533.5c1.36,0,2.45-1.1,2.45-2.45s-1.1-2.45-2.45-2.45-2.45,1.1-2.45,2.45,1.1,2.45,2.45,2.45Z" style="fill:#fff;"></path><path d="m85.27,509.68c1.21,0,2.19-.98,2.19-2.19s-.98-2.18-2.19-2.18-2.18.98-2.18,2.18.98,2.19,2.18,2.19Z" style="fill:#fff;"></path><path d="m85.27,486.17c1.26,0,2.28-1.02,2.28-2.28s-1.02-2.27-2.28-2.27-2.27,1.01-2.27,2.27,1.01,2.28,2.27,2.28Z" style="fill:#fff;"></path><path d="m86.52,462.26c1.07,0,1.93-.86,1.93-1.92s-.86-1.93-1.93-1.93-1.93.87-1.93,1.93.87,1.92,1.93,1.92Z" style="fill:#fff;"></path><circle cx="89.01" cy="436.88" r="2.53" style="fill:#fff;"></circle><path d="m92.73,415.59c1.12,0,2.02-.9,2.02-2.01s-.9-2.01-2.02-2.01-2.01.9-2.01,2.01.91,2.01,2.01,2.01Z" style="fill:#fff;"></path><path d="m97.68,391.82c.72,0,1.3-.59,1.3-1.31s-.59-1.31-1.3-1.31-1.32.59-1.32,1.31.59,1.31,1.32,1.31Z" style="fill:#fff;"></path><path d="m103.83,369.05c.73,0,1.32-.59,1.32-1.31s-.59-1.31-1.32-1.31-1.31.59-1.31,1.31.59,1.31,1.31,1.31Z" style="fill:#fff;"></path><path d="m111.19,346.63c.72,0,1.31-.59,1.31-1.31s-.59-1.31-1.31-1.31-1.32.59-1.32,1.31.59,1.31,1.32,1.31Z" style="fill:#fff;"></path><path d="m119.7,323.93c.34,0,.62-.27.62-.62s-.27-.61-.62-.61-.61.28-.61.61.27.62.61.62Z" style="fill:#fff;"></path><path d="m968.03,680.02c.29,0,.53-.24.53-.53s-.24-.53-.53-.53-.53.24-.53.53.24.53.53.53Z" style="fill:#fff;"></path><path d="m958.33,701.62c.33,0,.61-.28.61-.62s-.27-.61-.61-.61-.62.27-.62.61.27.62.62.62Z" style="fill:#fff;"></path><path d="m947.57,722.34c.19,0,.35-.15.35-.35s-.16-.35-.35-.35-.35.16-.35.35.15.35.35.35Z" style="fill:#fff;"></path><path d="m935.77,744.96c1.4,0,2.53-1.14,2.53-2.54s-1.13-2.53-2.53-2.53-2.53,1.13-2.53,2.53,1.13,2.54,2.53,2.54Z" style="fill:#fff;"></path><path d="m922.97,763.3c.58,0,1.06-.47,1.06-1.05s-.48-1.05-1.06-1.05-1.05.47-1.05,1.05.47,1.05,1.05,1.05Z" style="fill:#fff;"></path><path d="m909.2,785.95c2.51,0,4.55-2.04,4.55-4.55s-2.04-4.55-4.55-4.55-4.54,2.03-4.54,4.55,2.03,4.55,4.54,4.55Z" style="fill:#fff;"></path><path d="m894.49,803.52c2.03,0,3.67-1.64,3.67-3.67s-1.64-3.68-3.67-3.68-3.68,1.64-3.68,3.68,1.64,3.67,3.68,3.67Z" style="fill:#fff;"></path><path d="m878.88,822.35c2.66,0,4.81-2.15,4.81-4.81s-2.15-4.81-4.81-4.81-4.81,2.15-4.81,4.81,2.15,4.81,4.81,4.81Z" style="fill:#fff;"></path><path d="m862.4,839.33c2.7,0,4.9-2.2,4.9-4.9s-2.2-4.89-4.9-4.89-4.9,2.19-4.9,4.89,2.19,4.9,4.9,4.9Z" style="fill:#fff;"></path><path d="m845.11,856.16c3.14,0,5.69-2.55,5.69-5.69s-2.55-5.68-5.69-5.68-5.69,2.54-5.69,5.68,2.54,5.69,5.69,5.69Z" style="fill:#fff;"></path><path d="m827.04,870.54c2.7,0,4.89-2.19,4.89-4.9s-2.19-4.9-4.89-4.9-4.9,2.19-4.9,4.9,2.19,4.9,4.9,4.9Z" style="fill:#fff;"></path><path d="m808.23,887.06c3.96,0,7.17-3.21,7.17-7.17s-3.21-7.17-7.17-7.17-7.18,3.21-7.18,7.17,3.22,7.17,7.18,7.17Z" style="fill:#fff;"></path><path d="m788.73,899.22c3.33,0,6.04-2.7,6.04-6.04s-2.7-6.04-6.04-6.04-6.03,2.7-6.03,6.04,2.69,6.04,6.03,6.04Z" style="fill:#fff;"></path><path d="m768.6,912.48c3.87,0,7-3.13,7-7s-3.14-7-7-7-7,3.13-7,7,3.14,7,7,7Z" style="fill:#fff;"></path><path d="m747.88,923.59c3.78,0,6.83-3.06,6.83-6.83s-3.05-6.82-6.83-6.82-6.82,3.05-6.82,6.82,3.05,6.83,6.82,6.83Z" style="fill:#fff;"></path><path d="m726.62,934c3.87,0,7-3.13,7-7s-3.13-7-7-7-7,3.13-7,7,3.13,7,7,7Z" style="fill:#fff;"></path><path d="m704.88,943.69c4.16,0,7.52-3.36,7.52-7.52s-3.36-7.52-7.52-7.52-7.52,3.36-7.52,7.52,3.36,7.52,7.52,7.52Z" style="fill:#fff;"></path><path d="m682.72,952.11c4.35,0,7.87-3.52,7.87-7.87s-3.52-7.87-7.87-7.87-7.88,3.52-7.88,7.87,3.52,7.87,7.88,7.87Z" style="fill:#fff;"></path><path d="m660.17,959.5c4.59,0,8.31-3.72,8.31-8.31s-3.72-8.31-8.31-8.31-8.31,3.72-8.31,8.31,3.72,8.31,8.31,8.31Z" style="fill:#fff;"></path><path d="m637.3,965.41c4.64,0,8.4-3.76,8.4-8.4s-3.76-8.4-8.4-8.4-8.4,3.76-8.4,8.4,3.76,8.4,8.4,8.4Z" style="fill:#fff;"></path><path d="m614.18,969.29c4.2,0,7.6-3.4,7.6-7.61s-3.4-7.6-7.6-7.6-7.61,3.4-7.61,7.6,3.41,7.61,7.61,7.61Z" style="fill:#fff;"></path><path d="m590.85,972.9c4.25,0,7.7-3.44,7.7-7.7s-3.45-7.7-7.7-7.7-7.7,3.45-7.7,7.7,3.44,7.7,7.7,7.7Z" style="fill:#fff;"></path><path d="m567.37,975.42c4.35,0,7.87-3.52,7.87-7.87s-3.52-7.87-7.87-7.87-7.87,3.53-7.87,7.87,3.52,7.87,7.87,7.87Z" style="fill:#fff;"></path><path d="m543.81,976.25c4.16,0,7.52-3.37,7.52-7.52s-3.36-7.52-7.52-7.52-7.52,3.37-7.52,7.52,3.36,7.52,7.52,7.52Z" style="fill:#fff;"></path><path d="m520.22,977.04c4.59,0,8.31-3.72,8.31-8.31s-3.71-8.31-8.31-8.31-8.31,3.72-8.31,8.31,3.72,8.31,8.31,8.31Z" style="fill:#fff;"></path><path d="m496.65,975.25c4.26,0,7.7-3.44,7.7-7.7s-3.44-7.7-7.7-7.7-7.7,3.44-7.7,7.7,3.45,7.7,7.7,7.7Z" style="fill:#fff;"></path><path d="m473.18,972.9c4.25,0,7.7-3.44,7.7-7.7s-3.45-7.7-7.7-7.7-7.7,3.45-7.7,7.7,3.45,7.7,7.7,7.7Z" style="fill:#fff;"></path><path d="m449.84,969.21c4.16,0,7.53-3.37,7.53-7.53s-3.37-7.52-7.53-7.52-7.52,3.37-7.52,7.52,3.37,7.53,7.52,7.53Z" style="fill:#fff;"></path><path d="m426.72,965.15c4.49,0,8.13-3.64,8.13-8.13s-3.64-8.14-8.13-8.14-8.14,3.65-8.14,8.14,3.65,8.13,8.14,8.13Z" style="fill:#fff;"></path><path d="m403.85,959.24c4.45,0,8.05-3.6,8.05-8.05s-3.6-8.05-8.05-8.05-8.05,3.6-8.05,8.05,3.6,8.05,8.05,8.05Z" style="fill:#fff;"></path><path d="m381.31,952.55c4.59,0,8.31-3.72,8.31-8.31s-3.72-8.31-8.31-8.31-8.31,3.72-8.31,8.31,3.72,8.31,8.31,8.31Z" style="fill:#fff;"></path><path d="m359.14,944.47c4.59,0,8.31-3.72,8.31-8.31s-3.72-8.31-8.31-8.31-8.31,3.72-8.31,8.31,3.72,8.31,8.31,8.31Z" style="fill:#fff;"></path><path d="m337.4,935.49c4.69,0,8.49-3.8,8.49-8.49s-3.8-8.48-8.49-8.48-8.49,3.8-8.49,8.48,3.8,8.49,8.49,8.49Z" style="fill:#fff;"></path><path d="m316.15,924.81c4.45,0,8.05-3.6,8.05-8.05s-3.6-8.05-8.05-8.05-8.05,3.6-8.05,8.05,3.59,8.05,8.05,8.05Z" style="fill:#fff;"></path><path d="m295.43,913.97c4.68,0,8.48-3.8,8.48-8.49s-3.8-8.49-8.48-8.49-8.49,3.8-8.49,8.49,3.8,8.49,8.49,8.49Z" style="fill:#fff;"></path><path d="m275.29,901.75c4.74,0,8.57-3.84,8.57-8.57s-3.84-8.58-8.57-8.58-8.58,3.84-8.58,8.58,3.84,8.57,8.58,8.57Z" style="fill:#fff;"></path><path d="m255.8,887.93c4.45,0,8.05-3.6,8.05-8.05s-3.61-8.04-8.05-8.04-8.05,3.6-8.05,8.04,3.6,8.05,8.05,8.05Z" style="fill:#fff;"></path><path d="m236.99,873.43c4.3,0,7.79-3.48,7.79-7.78s-3.49-7.79-7.79-7.79-7.78,3.49-7.78,7.79,3.49,7.78,7.78,7.78Z" style="fill:#fff;"></path><path d="m218.91,858.52c4.45,0,8.05-3.6,8.05-8.05s-3.61-8.05-8.05-8.05-8.05,3.6-8.05,8.05,3.6,8.05,8.05,8.05Z" style="fill:#fff;"></path><path d="m201.62,841.86c4.11,0,7.44-3.33,7.44-7.44s-3.33-7.43-7.44-7.43-7.43,3.33-7.43,7.43,3.33,7.44,7.43,7.44Z" style="fill:#fff;"></path><path d="m185.15,824.97c4.1,0,7.44-3.33,7.44-7.44s-3.33-7.43-7.44-7.43-7.43,3.33-7.43,7.43,3.33,7.44,7.43,7.44Z" style="fill:#fff;"></path><path d="m169.54,807.72c4.35,0,7.87-3.52,7.87-7.87s-3.52-7.88-7.87-7.88-7.88,3.52-7.88,7.88,3.52,7.87,7.88,7.87Z" style="fill:#fff;"></path><path d="m154.83,789.54c4.49,0,8.14-3.64,8.14-8.13s-3.65-8.14-8.14-8.14-8.14,3.64-8.14,8.14,3.64,8.13,8.14,8.13Z" style="fill:#fff;"></path><path d="m141.06,770.39c4.49,0,8.13-3.65,8.13-8.14s-3.64-8.14-8.13-8.14-8.14,3.65-8.14,8.14,3.65,8.14,8.14,8.14Z" style="fill:#fff;"></path><path d="m128.25,749.25c3.77,0,6.83-3.06,6.83-6.83s-3.06-6.82-6.83-6.82-6.82,3.06-6.82,6.82,3.05,6.83,6.82,6.83Z" style="fill:#fff;"></path><path d="m116.46,728.56c3.62,0,6.55-2.94,6.55-6.56s-2.94-6.57-6.55-6.57-6.56,2.94-6.56,6.57,2.93,6.56,6.56,6.56Z" style="fill:#fff;"></path><path d="m105.69,705.03c2.23,0,4.03-1.8,4.03-4.02s-1.8-4.03-4.03-4.03-4.02,1.8-4.02,4.03,1.8,4.02,4.02,4.02Z" style="fill:#fff;"></path><path d="m95.99,682.91c1.88,0,3.41-1.53,3.41-3.41s-1.53-3.41-3.41-3.41-3.41,1.53-3.41,3.41,1.52,3.41,3.41,3.41Z" style="fill:#fff;"></path><circle cx="87.37" cy="657.53" r="3.41" style="fill:#fff;"></circle><path d="m79.85,638.58c1.89,0,3.42-1.52,3.42-3.41s-1.53-3.41-3.42-3.41-3.41,1.53-3.41,3.41,1.53,3.41,3.41,3.41Z" style="fill:#fff;"></path><path d="m73.47,615.52c1.69,0,3.06-1.38,3.06-3.06s-1.37-3.06-3.06-3.06-3.06,1.37-3.06,3.06,1.37,3.06,3.06,3.06Z" style="fill:#fff;"></path><path d="m68.21,592.17c1.5,0,2.72-1.21,2.72-2.71s-1.22-2.72-2.72-2.72-2.71,1.22-2.71,2.72,1.22,2.71,2.71,2.71Z" style="fill:#fff;"></path><circle cx="64.12" cy="566.22" r="2.01" style="fill:#fff;"></circle><path d="m61.19,544.99c1.2,0,2.18-.97,2.18-2.18s-.98-2.18-2.18-2.18-2.19.98-2.19,2.18.98,2.18,2.19,2.18Z" style="fill:#fff;"></path><circle cx="59.42" cy="519.28" r="2.01" style="fill:#fff;"></circle><path d="m58.84,497.62c1.06,0,1.93-.86,1.93-1.93s-.87-1.93-1.93-1.93-1.93.86-1.93,1.93.87,1.93,1.93,1.93Z" style="fill:#fff;"></path><path d="m59.42,473.95c1.02,0,1.84-.82,1.84-1.83s-.82-1.84-1.84-1.84-1.83.82-1.83,1.84.82,1.83,1.83,1.83Z" style="fill:#fff;"></path><path d="m61.19,450.42c1.01,0,1.83-.83,1.83-1.84s-.82-1.83-1.83-1.83-1.84.82-1.84,1.83.82,1.84,1.84,1.84Z" style="fill:#fff;"></path><circle cx="64.12" cy="425.18" r="1.58" style="fill:#fff;"></circle><path d="m68.21,402.73c.43,0,.79-.35.79-.79s-.36-.79-.79-.79-.78.35-.78.79.35.79.78.79Z" style="fill:#fff;"></path><path d="m79.85,356.32c.05,0,.09-.04.09-.09,0-.05-.04-.08-.09-.08-.05,0-.08.04-.08.08,0,.05.04.09.08.09Z" style="fill:#fff;"></path><path d="m965.54,743.81s.09-.04.09-.09c0-.05-.05-.09-.09-.09-.05,0-.09.04-.09.09,0,.05.04.09.09.09Z" style="fill:#fff;"></path><path d="m940.21,784.57c.58,0,1.05-.47,1.05-1.05s-.47-1.05-1.05-1.05-1.05.47-1.05,1.05.47,1.05,1.05,1.05Z" style="fill:#fff;"></path><path d="m926.16,803.09c.33,0,.61-.28.61-.62s-.27-.61-.61-.61-.62.27-.62.61.27.62.62.62Z" style="fill:#fff;"></path><circle cx="911.24" cy="820.74" r="1.58" style="fill:#fff;"></circle><path d="m895.46,839.86c.88,0,1.58-.7,1.58-1.57s-.71-1.58-1.58-1.58-1.57.7-1.57,1.58.7,1.57,1.57,1.57Z" style="fill:#fff;"></path><path d="m878.88,858.22c1.74,0,3.15-1.41,3.15-3.15s-1.42-3.15-3.15-3.15-3.15,1.41-3.15,3.15,1.41,3.15,3.15,3.15Z" style="fill:#fff;"></path><path d="m861.52,875.16c2.27,0,4.11-1.84,4.11-4.11s-1.84-4.11-4.11-4.11-4.12,1.84-4.12,4.11,1.84,4.11,4.12,4.11Z" style="fill:#fff;"></path><path d="m843.43,890.3c2.27,0,4.11-1.84,4.11-4.11s-1.84-4.11-4.11-4.11-4.11,1.84-4.11,4.11,1.83,4.11,4.11,4.11Z" style="fill:#fff;"></path><path d="m824.63,906.41c3.29,0,5.95-2.66,5.95-5.95s-2.66-5.95-5.95-5.95-5.95,2.66-5.95,5.95,2.66,5.95,5.95,5.95Z" style="fill:#fff;"></path><path d="m805.19,919.87c3.34,0,6.04-2.7,6.04-6.04s-2.69-6.04-6.04-6.04-6.03,2.7-6.03,6.04,2.69,6.04,6.03,6.04Z" style="fill:#fff;"></path><path d="m785.14,931.86c3.1,0,5.6-2.5,5.6-5.6s-2.5-5.6-5.6-5.6-5.6,2.5-5.6,5.6,2.5,5.6,5.6,5.6Z" style="fill:#fff;"></path><path d="m764.52,943.34c3.09,0,5.6-2.5,5.6-5.59s-2.51-5.6-5.6-5.6-5.59,2.51-5.59,5.6,2.5,5.59,5.59,5.59Z" style="fill:#fff;"></path><path d="m743.39,954.44c3.43,0,6.21-2.78,6.21-6.21s-2.79-6.22-6.21-6.22-6.21,2.79-6.21,6.22,2.78,6.21,6.21,6.21Z" style="fill:#fff;"></path><path d="m721.79,963.83c3.38,0,6.12-2.74,6.12-6.12s-2.74-6.12-6.12-6.12-6.13,2.74-6.13,6.12,2.74,6.12,6.13,6.12Z" style="fill:#fff;"></path><circle cx="699.76" cy="966.15" r="7.44" style="fill:#fff;"></circle><path d="m677.35,980.81c4.01,0,7.26-3.25,7.26-7.26s-3.25-7.26-7.26-7.26-7.25,3.25-7.25,7.26,3.25,7.26,7.25,7.26Z" style="fill:#fff;"></path><path d="m654.63,987.31c4.1,0,7.44-3.33,7.44-7.43s-3.33-7.44-7.44-7.44-7.44,3.33-7.44,7.44,3.33,7.43,7.44,7.43Z" style="fill:#fff;"></path><path d="m631.62,992.57c4.11,0,7.44-3.33,7.44-7.44s-3.33-7.43-7.44-7.43-7.44,3.33-7.44,7.43,3.33,7.44,7.44,7.44Z" style="fill:#fff;"></path><path d="m608.4,996.98c4.26,0,7.7-3.44,7.7-7.7s-3.44-7.7-7.7-7.7-7.7,3.45-7.7,7.7,3.45,7.7,7.7,7.7Z" style="fill:#fff;"></path><path d="m585,1000.48c4.49,0,8.13-3.64,8.13-8.13s-3.64-8.14-8.13-8.14-8.14,3.64-8.14,8.14,3.64,8.13,8.14,8.13Z" style="fill:#fff;"></path><path d="m561.49,1003.3c4.98,0,9.01-4.03,9.01-9.01s-4.03-9.01-9.01-9.01-9.01,4.03-9.01,9.01,4.03,9.01,9.01,9.01Z" style="fill:#fff;"></path><path d="m537.91,1004.05c4.93,0,8.91-4,8.91-8.93s-3.99-8.92-8.91-8.92-8.92,4-8.92,8.92,3.99,8.93,8.92,8.93Z" style="fill:#fff;"></path><path d="m514.32,1003.25c4.64,0,8.4-3.76,8.4-8.4s-3.76-8.4-8.4-8.4-8.4,3.76-8.4,8.4,3.76,8.4,8.4,8.4Z" style="fill:#fff;"></path><circle cx="490.76" cy="993.46" r="6.39" style="fill:#fff;"></circle><path d="m467.3,998.13c3.97,0,7.17-3.21,7.17-7.17s-3.2-7.17-7.17-7.17-7.17,3.21-7.17,7.17,3.21,7.17,7.17,7.17Z" style="fill:#fff;"></path><path d="m443.99,996.09c4.83,0,8.75-3.92,8.75-8.75s-3.92-8.75-8.75-8.75-8.74,3.91-8.74,8.75,3.91,8.75,8.74,8.75Z" style="fill:#fff;"></path><path d="m420.88,991.39c4.83,0,8.74-3.91,8.74-8.75s-3.91-8.75-8.74-8.75-8.75,3.92-8.75,8.75,3.91,8.75,8.75,8.75Z" style="fill:#fff;"></path><path d="m397.99,985.94c5.03,0,9.1-4.07,9.1-9.1s-4.07-9.1-9.1-9.1-9.09,4.08-9.09,9.1,4.07,9.1,9.09,9.1Z" style="fill:#fff;"></path><path d="m375.42,978.2c4.54,0,8.23-3.68,8.23-8.23s-3.68-8.22-8.23-8.22-8.22,3.68-8.22,8.22,3.68,8.23,8.22,8.23Z" style="fill:#fff;"></path><path d="m353.2,970.54c4.69,0,8.48-3.8,8.48-8.49s-3.79-8.48-8.48-8.48-8.49,3.8-8.49,8.48,3.8,8.49,8.49,8.49Z" style="fill:#fff;"></path><path d="m331.38,961.75c4.78,0,8.66-3.87,8.66-8.66s-3.88-8.66-8.66-8.66-8.66,3.87-8.66,8.66,3.87,8.66,8.66,8.66Z" style="fill:#fff;"></path><path d="m310,951.59c4.69,0,8.48-3.79,8.48-8.48s-3.79-8.49-8.48-8.49-8.49,3.8-8.49,8.49,3.8,8.48,8.49,8.48Z" style="fill:#fff;"></path><path d="m289.12,940.61c4.68,0,8.48-3.8,8.48-8.49s-3.8-8.49-8.48-8.49-8.49,3.8-8.49,8.49,3.8,8.49,8.49,8.49Z" style="fill:#fff;"></path><path d="m268.78,928.39c4.54,0,8.22-3.68,8.22-8.22s-3.68-8.23-8.22-8.23-8.22,3.68-8.22,8.23,3.68,8.22,8.22,8.22Z" style="fill:#fff;"></path><path d="m249.03,915.75c4.69,0,8.49-3.8,8.49-8.49s-3.8-8.48-8.49-8.48-8.48,3.8-8.48,8.48,3.8,8.49,8.48,8.49Z" style="fill:#fff;"></path><path d="m229.91,901.84c4.64,0,8.4-3.76,8.4-8.4s-3.76-8.4-8.4-8.4-8.4,3.76-8.4,8.4,3.76,8.4,8.4,8.4Z" style="fill:#fff;"></path><path d="m211.46,887.04c4.59,0,8.31-3.71,8.31-8.31s-3.72-8.31-8.31-8.31-8.31,3.72-8.31,8.31,3.71,8.31,8.31,8.31Z" style="fill:#fff;"></path><path d="m193.73,871.39c4.54,0,8.22-3.68,8.22-8.22s-3.68-8.22-8.22-8.22-8.22,3.68-8.22,8.22,3.68,8.22,8.22,8.22Z" style="fill:#fff;"></path><circle cx="176.76" cy="846.78" r="8.4" style="fill:#fff;"></circle><circle cx="160.57" cy="829.61" r="8.14" style="fill:#fff;"></circle><circle cx="145.22" cy="811.7" r="8.4" style="fill:#fff;"></circle><path d="m130.73,801.83c4.83,0,8.75-3.92,8.75-8.75s-3.91-8.75-8.75-8.75-8.75,3.91-8.75,8.75,3.91,8.75,8.75,8.75Z" style="fill:#fff;"></path><path d="m117.13,781.93c4.49,0,8.14-3.65,8.14-8.13s-3.65-8.14-8.14-8.14-8.14,3.64-8.14,8.14,3.65,8.13,8.14,8.13Z" style="fill:#fff;"></path><path d="m104.46,759.93c3.33,0,6.03-2.71,6.03-6.04s-2.69-6.04-6.03-6.04-6.04,2.71-6.04,6.04,2.7,6.04,6.04,6.04Z" style="fill:#fff;"></path><path d="m92.75,738.22c2.66,0,4.8-2.15,4.8-4.8s-2.15-4.82-4.8-4.82-4.82,2.16-4.82,4.82,2.16,4.8,4.82,4.8Z" style="fill:#fff;"></path><path d="m82.01,717.22c2.66,0,4.81-2.15,4.81-4.81s-2.15-4.81-4.81-4.81-4.81,2.15-4.81,4.81,2.15,4.81,4.81,4.81Z" style="fill:#fff;"></path><circle cx="72.28" cy="690.91" r="3.41" style="fill:#fff;"></circle><path d="m63.57,672.31c1.83,0,3.33-1.49,3.33-3.33s-1.49-3.32-3.33-3.32-3.33,1.49-3.33,3.32,1.49,3.33,3.33,3.33Z" style="fill:#fff;"></path><path d="m55.91,649.73c1.69,0,3.06-1.37,3.06-3.06s-1.37-3.06-3.06-3.06-3.06,1.37-3.06,3.06,1.36,3.06,3.06,3.06Z" style="fill:#fff;"></path><path d="m49.31,627.34c1.83,0,3.33-1.49,3.33-3.33s-1.49-3.32-3.33-3.32-3.33,1.49-3.33,3.32,1.49,3.33,3.33,3.33Z" style="fill:#fff;"></path><path d="m43.79,604.14c1.7,0,3.07-1.37,3.07-3.06s-1.37-3.06-3.07-3.06-3.06,1.37-3.06,3.06,1.37,3.06,3.06,3.06Z" style="fill:#fff;"></path><path d="m39.36,580.97c1.7,0,3.06-1.37,3.06-3.06s-1.36-3.06-3.06-3.06-3.06,1.37-3.06,3.06,1.37,3.06,3.06,3.06Z" style="fill:#fff;"></path><path d="m36.03,557.35c1.54,0,2.79-1.26,2.79-2.8s-1.25-2.8-2.79-2.8-2.8,1.25-2.8,2.8,1.26,2.8,2.8,2.8Z" style="fill:#fff;"></path><path d="m33.8,533.86c1.55,0,2.8-1.25,2.8-2.79s-1.26-2.8-2.8-2.8-2.79,1.25-2.79,2.8,1.25,2.79,2.79,2.79Z" style="fill:#fff;"></path><path d="m32.69,509.33c1.01,0,1.83-.82,1.83-1.83s-.82-1.84-1.83-1.84-1.84.83-1.84,1.84.83,1.83,1.84,1.83Z" style="fill:#fff;"></path><path d="m32.69,485.47c.87,0,1.58-.7,1.58-1.58s-.71-1.57-1.58-1.57-1.58.7-1.58,1.57.71,1.58,1.58,1.58Z" style="fill:#fff;"></path><path d="m33.8,461.12c.43,0,.78-.35.78-.79s-.35-.78-.78-.78-.78.35-.78.78.35.79.78.79Z" style="fill:#fff;"></path><path d="m36.03,437.11c.14,0,.26-.12.26-.26s-.11-.27-.26-.27-.27.12-.27.27.12.26.27.26Z" style="fill:#fff;"></path><path d="m912.02,859.64c.34,0,.62-.27.62-.61s-.27-.61-.62-.61-.61.27-.61.61.27.61.61.61Z" style="fill:#fff;"></path><path d="m877.92,893.03c.77,0,1.4-.63,1.4-1.4s-.63-1.4-1.4-1.4-1.4.62-1.4,1.4.62,1.4,1.4,1.4Z" style="fill:#fff;"></path><path d="m859.82,909.02c1.26,0,2.28-1.02,2.28-2.28s-1.02-2.28-2.28-2.28-2.28,1.02-2.28,2.28,1.02,2.28,2.28,2.28Z" style="fill:#fff;"></path><path d="m841.04,921.92c.48,0,.87-.39.87-.88s-.39-.88-.87-.88-.88.39-.88.88.39.88.88.88Z" style="fill:#fff;"></path><path d="m821.65,937.98c1.93,0,3.5-1.57,3.5-3.5s-1.57-3.5-3.5-3.5-3.5,1.57-3.5,3.5,1.57,3.5,3.5,3.5Z" style="fill:#fff;"></path><path d="m801.67,951.93c2.7,0,4.89-2.19,4.89-4.9s-2.19-4.9-4.89-4.9-4.9,2.19-4.9,4.9,2.19,4.9,4.9,4.9Z" style="fill:#fff;"></path><path d="m781.15,963.22c2.51,0,4.54-2.04,4.54-4.55s-2.03-4.55-4.54-4.55-4.55,2.04-4.55,4.55,2.04,4.55,4.55,4.55Z" style="fill:#fff;"></path><path d="m760.12,975.59c3.43,0,6.21-2.78,6.21-6.21s-2.78-6.21-6.21-6.21-6.21,2.78-6.21,6.21,2.79,6.21,6.21,6.21Z" style="fill:#fff;"></path><circle cx="738.64" cy="979.14" r="5.51" style="fill:#fff;"></circle><path d="m716.75,994.22c3.47,0,6.3-2.82,6.3-6.3s-2.82-6.3-6.3-6.3-6.3,2.82-6.3,6.3,2.82,6.3,6.3,6.3Z" style="fill:#fff;"></path><path d="m694.48,1002.37c3.67,0,6.65-2.98,6.65-6.65s-2.98-6.65-6.65-6.65-6.65,2.98-6.65,6.65,2.98,6.65,6.65,6.65Z" style="fill:#fff;"></path><circle cx="671.88" cy="1002.5" r="6.56" style="fill:#fff;"></circle><path d="m649,1015.36c3.91,0,7.09-3.17,7.09-7.09s-3.17-7.09-7.09-7.09-7.08,3.17-7.08,7.09,3.17,7.09,7.08,7.09Z" style="fill:#fff;"></path><path d="m625.89,1019.38c3.52,0,6.39-2.85,6.39-6.38s-2.86-6.39-6.39-6.39-6.39,2.86-6.39,6.39,2.86,6.38,6.39,6.38Z" style="fill:#fff;"></path><path d="m602.58,1024.22c4.16,0,7.53-3.37,7.53-7.53s-3.36-7.52-7.53-7.52-7.52,3.37-7.52,7.52,3.37,7.53,7.52,7.53Z" style="fill:#fff;"></path><path d="m579.14,1026.85c4.15,0,7.51-3.37,7.51-7.52s-3.36-7.52-7.51-7.52-7.52,3.37-7.52,7.52,3.36,7.52,7.52,7.52Z" style="fill:#fff;"></path><path d="m555.6,1028.88c4.4,0,7.96-3.57,7.96-7.96s-3.56-7.96-7.96-7.96-7.96,3.56-7.96,7.96,3.57,7.96,7.96,7.96Z" style="fill:#fff;"></path><path d="m532.02,1029.41c4.39,0,7.95-3.56,7.95-7.96s-3.56-7.96-7.95-7.96-7.96,3.57-7.96,7.96,3.56,7.96,7.96,7.96Z" style="fill:#fff;"></path><path d="m508.42,1028.09c3.96,0,7.17-3.21,7.17-7.17s-3.21-7.18-7.17-7.18-7.17,3.22-7.17,7.18,3.2,7.17,7.17,7.17Z" style="fill:#fff;"></path><path d="m484.89,1027.38c4.44,0,8.05-3.61,8.05-8.05s-3.61-8.05-8.05-8.05-8.05,3.6-8.05,8.05,3.6,8.05,8.05,8.05Z" style="fill:#fff;"></path><path d="m461.44,1023.51c3.77,0,6.82-3.06,6.82-6.82s-3.05-6.82-6.82-6.82-6.83,3.06-6.83,6.82,3.06,6.82,6.83,6.82Z" style="fill:#fff;"></path><path d="m438.13,1021.66c4.79,0,8.66-3.87,8.66-8.66s-3.87-8.66-8.66-8.66-8.66,3.87-8.66,8.66,3.87,8.66,8.66,8.66Z" style="fill:#fff;"></path><path d="m415.02,1018.07c5.41,0,9.8-4.39,9.8-9.8s-4.38-9.8-9.8-9.8-9.8,4.38-9.8,9.8,4.38,9.8,9.8,9.8Z" style="fill:#fff;"></path><path d="m392.14,1011.69c5.08,0,9.19-4.11,9.19-9.18s-4.11-9.18-9.19-9.18-9.18,4.11-9.18,9.18,4.11,9.18,9.18,9.18Z" style="fill:#fff;"></path><circle cx="369.55" cy="995.72" r="9.27" style="fill:#fff;"></circle><path d="m347.27,995.8c4.35,0,7.88-3.53,7.88-7.88s-3.52-7.87-7.88-7.87-7.87,3.52-7.87,7.87,3.52,7.88,7.87,7.88Z" style="fill:#fff;"></path><circle cx="325.38" cy="979.14" r="9.1" style="fill:#fff;"></circle><path d="m303.9,978.04c4.78,0,8.66-3.87,8.66-8.66s-3.87-8.66-8.66-8.66-8.66,3.88-8.66,8.66,3.87,8.66,8.66,8.66Z" style="fill:#fff;"></path><path d="m282.87,966.28c4.21,0,7.61-3.4,7.61-7.61s-3.4-7.61-7.61-7.61-7.61,3.41-7.61,7.61,3.41,7.61,7.61,7.61Z" style="fill:#fff;"></path><path d="m262.35,954.64c4.2,0,7.62-3.41,7.62-7.61s-3.42-7.61-7.62-7.61-7.61,3.41-7.61,7.61,3.41,7.61,7.61,7.61Z" style="fill:#fff;"></path><path d="m242.38,942.7c4.54,0,8.22-3.68,8.22-8.22s-3.68-8.22-8.22-8.22-8.22,3.68-8.22,8.22,3.68,8.22,8.22,8.22Z" style="fill:#fff;"></path><path d="m222.98,929.53c4.69,0,8.49-3.8,8.49-8.49s-3.8-8.49-8.49-8.49-8.49,3.8-8.49,8.49,3.81,8.49,8.49,8.49Z" style="fill:#fff;"></path><path d="m204.21,915.41c4.79,0,8.66-3.87,8.66-8.66s-3.87-8.66-8.66-8.66-8.66,3.87-8.66,8.66,3.87,8.66,8.66,8.66Z" style="fill:#fff;"></path><path d="m186.1,900.29c4.78,0,8.66-3.88,8.66-8.66s-3.88-8.66-8.66-8.66-8.66,3.88-8.66,8.66,3.88,8.66,8.66,8.66Z" style="fill:#fff;"></path><path d="m168.68,884.63c4.93,0,8.92-4,8.92-8.92s-3.99-8.93-8.92-8.93-8.92,4-8.92,8.93,4,8.92,8.92,8.92Z" style="fill:#fff;"></path><circle cx="152" cy="859.02" r="8.57" style="fill:#fff;"></circle><path d="m136.08,850.18c4.73,0,8.56-3.84,8.56-8.57s-3.84-8.58-8.56-8.58-8.58,3.84-8.58,8.58,3.84,8.57,8.58,8.57Z" style="fill:#fff;"></path><path d="m120.96,831.98c4.69,0,8.49-3.8,8.49-8.49s-3.8-8.48-8.49-8.48-8.49,3.8-8.49,8.48,3.81,8.49,8.49,8.49Z" style="fill:#fff;"></path><path d="m106.66,813.47c4.83,0,8.75-3.92,8.75-8.75s-3.92-8.75-8.75-8.75-8.75,3.91-8.75,8.75,3.92,8.75,8.75,8.75Z" style="fill:#fff;"></path><path d="m93.24,791.54c3.43,0,6.2-2.78,6.2-6.21s-2.78-6.21-6.2-6.21-6.21,2.78-6.21,6.21,2.78,6.21,6.21,6.21Z" style="fill:#fff;"></path><path d="m80.68,771.57c3.43,0,6.2-2.78,6.2-6.21s-2.78-6.21-6.2-6.21-6.21,2.79-6.21,6.21,2.78,6.21,6.21,6.21Z" style="fill:#fff;"></path><path d="m69.04,750.35c3.05,0,5.51-2.47,5.51-5.51s-2.47-5.51-5.51-5.51-5.51,2.47-5.51,5.51,2.47,5.51,5.51,5.51Z" style="fill:#fff;"></path><path d="m58.33,728.89c2.8,0,5.07-2.27,5.07-5.07s-2.27-5.08-5.07-5.08-5.08,2.27-5.08,5.08,2.28,5.07,5.08,5.07Z" style="fill:#fff;"></path><path d="m48.57,706.53c2.32,0,4.2-1.89,4.2-4.2s-1.88-4.2-4.2-4.2-4.2,1.88-4.2,4.2,1.88,4.2,4.2,4.2Z" style="fill:#fff;"></path><path d="m39.78,684.81c2.41,0,4.38-1.96,4.38-4.38s-1.96-4.37-4.38-4.37-4.38,1.96-4.38,4.37,1.96,4.38,4.38,4.38Z" style="fill:#fff;"></path><path d="m31.99,662.54c2.42,0,4.38-1.96,4.38-4.37s-1.96-4.38-4.38-4.38-4.37,1.96-4.37,4.38,1.96,4.37,4.37,4.37Z" style="fill:#fff;"></path><path d="m25.2,636.71c.62,0,1.13-.51,1.13-1.14s-.51-1.14-1.13-1.14-1.14.51-1.14,1.14.51,1.14,1.14,1.14Z" style="fill:#fff;"></path><circle cx="19.44" cy="612.69" r="1.58" style="fill:#fff;"></circle><path d="m14.71,590.62c.58,0,1.05-.47,1.05-1.05s-.47-1.05-1.05-1.05-1.05.47-1.05,1.05.47,1.05,1.05,1.05Z" style="fill:#fff;"></path><path d="m11.02,567.05c.43,0,.78-.35.78-.78s-.35-.79-.78-.79-.78.35-.78.79.35.78.78.78Z" style="fill:#fff;"></path><path d="m8.37,543.35c.29,0,.52-.24.52-.53s-.24-.53-.52-.53-.53.24-.53.53.24.53.53.53Z" style="fill:#fff;"></path><path d="m6.79,519.55c.14,0,.26-.12.26-.26,0-.15-.11-.27-.26-.27-.15,0-.27.12-.27.27s.11.26.27.26Z" style="fill:#fff;"></path><path d="m857.45,942.48c.49,0,.88-.39.88-.87s-.39-.88-.88-.88-.88.39-.88.88.39.87.88.87Z" style="fill:#fff;"></path><circle cx="838.1" cy="955.11" r="1.58" style="fill:#fff;"></circle><path d="m818.18,969.34c.87,0,1.58-.7,1.58-1.57s-.71-1.58-1.58-1.58-1.58.7-1.58,1.58.71,1.57,1.58,1.57Z" style="fill:#fff;"></path><path d="m797.75,980.97c.77,0,1.4-.63,1.4-1.4s-.63-1.4-1.4-1.4-1.4.62-1.4,1.4.62,1.4,1.4,1.4Z" style="fill:#fff;"></path><path d="m776.83,994.51c2.22,0,4.03-1.8,4.03-4.03s-1.8-4.02-4.03-4.02-4.03,1.8-4.03,4.02,1.8,4.03,4.03,4.03Z" style="fill:#fff;"></path><path d="m755.47,1001.8c.72,0,1.32-.59,1.32-1.31s-.59-1.31-1.32-1.31-1.31.59-1.31,1.31.59,1.31,1.31,1.31Z" style="fill:#fff;"></path><path d="m733.7,1013.69c2.27,0,4.11-1.84,4.11-4.11s-1.84-4.11-4.11-4.11-4.11,1.84-4.11,4.11,1.83,4.11,4.11,4.11Z" style="fill:#fff;"></path><path d="m711.55,1021.83c2.28,0,4.12-1.84,4.12-4.11s-1.84-4.11-4.12-4.11-4.11,1.84-4.11,4.11,1.84,4.11,4.11,4.11Z" style="fill:#fff;"></path><path d="m689.08,1025.44c.3,0,.53-.24.53-.52s-.23-.53-.53-.53-.53.24-.53.53.24.52.53.52Z" style="fill:#fff;"></path><path d="m666.33,1033.34c1.21,0,2.18-.98,2.18-2.19s-.97-2.18-2.18-2.18-2.18.98-2.18,2.18.97,2.19,2.18,2.19Z" style="fill:#fff;"></path><path d="m643.32,1040.77c2.42,0,4.38-1.96,4.38-4.38s-1.96-4.37-4.38-4.37-4.38,1.96-4.38,4.37,1.96,4.38,4.38,4.38Z" style="fill:#fff;"></path><path d="m620.12,1046.87c3.43,0,6.2-2.78,6.2-6.21s-2.78-6.21-6.2-6.21-6.21,2.78-6.21,6.21,2.78,6.21,6.21,6.21Z" style="fill:#fff;"></path><path d="m596.75,1051.71c4.3,0,7.79-3.49,7.79-7.79s-3.49-7.78-7.79-7.78-7.79,3.48-7.79,7.78,3.49,7.79,7.79,7.79Z" style="fill:#fff;"></path><path d="m573.27,1054.15c4.39,0,7.96-3.57,7.96-7.96s-3.57-7.96-7.96-7.96-7.96,3.56-7.96,7.96,3.55,7.96,7.96,7.96Z" style="fill:#fff;"></path><path d="m549.71,1054.89c4.1,0,7.44-3.33,7.44-7.44s-3.33-7.43-7.44-7.43-7.43,3.33-7.43,7.43,3.33,7.44,7.43,7.44Z" style="fill:#fff;"></path><path d="m526.12,1055.14c4.1,0,7.43-3.33,7.43-7.44s-3.33-7.43-7.43-7.43-7.44,3.33-7.44,7.43,3.33,7.44,7.44,7.44Z" style="fill:#fff;"></path><path d="m502.53,1055.08c4.49,0,8.13-3.64,8.13-8.14s-3.64-8.13-8.13-8.13-8.14,3.64-8.14,8.13,3.65,8.14,8.14,8.14Z" style="fill:#fff;"></path><path d="m479,1053.84c4.79,0,8.66-3.87,8.66-8.66s-3.87-8.66-8.66-8.66-8.66,3.87-8.66,8.66,3.88,8.66,8.66,8.66Z" style="fill:#fff;"></path><path d="m455.57,1050.73c4.59,0,8.31-3.72,8.31-8.31s-3.72-8.31-8.31-8.31-8.31,3.72-8.31,8.31,3.72,8.31,8.31,8.31Z" style="fill:#fff;"></path><path d="m432.28,1046.7c4.45,0,8.05-3.61,8.05-8.05s-3.6-8.05-8.05-8.05-8.05,3.6-8.05,8.05,3.6,8.05,8.05,8.05Z" style="fill:#fff;"></path><path d="m409.18,1042.82c4.93,0,8.92-4,8.92-8.92s-4-8.93-8.92-8.93-8.93,4-8.93,8.93,4,8.92,8.93,8.92Z" style="fill:#fff;"></path><path d="m386.29,1036.99c4.88,0,8.84-3.96,8.84-8.83s-3.96-8.83-8.84-8.83-8.83,3.95-8.83,8.83,3.95,8.83,8.83,8.83Z" style="fill:#fff;"></path><path d="m363.67,1029.75c4.59,0,8.31-3.71,8.31-8.31s-3.72-8.31-8.31-8.31-8.31,3.72-8.31,8.31,3.72,8.31,8.31,8.31Z" style="fill:#fff;"></path><path d="m341.36,1022.08c4.59,0,8.31-3.72,8.31-8.31s-3.72-8.31-8.31-8.31-8.31,3.72-8.31,8.31,3.72,8.31,8.31,8.31Z" style="fill:#fff;"></path><path d="m319.4,1014.16c4.97,0,9.01-4.03,9.01-9.01s-4.03-9.01-9.01-9.01-9.01,4.03-9.01,9.01,4.03,9.01,9.01,9.01Z" style="fill:#fff;"></path><path d="m297.82,1004.08c4.69,0,8.49-3.8,8.49-8.48s-3.8-8.49-8.49-8.49-8.48,3.8-8.48,8.49,3.8,8.48,8.48,8.48Z" style="fill:#fff;"></path><path d="m276.67,993.88c4.83,0,8.75-3.92,8.75-8.75s-3.91-8.75-8.75-8.75-8.75,3.92-8.75,8.75,3.92,8.75,8.75,8.75Z" style="fill:#fff;"></path><path d="m255.99,982.61c4.88,0,8.83-3.95,8.83-8.83s-3.95-8.83-8.83-8.83-8.84,3.95-8.84,8.83,3.96,8.83,8.84,8.83Z" style="fill:#fff;"></path><path d="m235.81,970.64c5.02,0,9.1-4.07,9.1-9.1s-4.08-9.1-9.1-9.1-9.1,4.08-9.1,9.1,4.07,9.1,9.1,9.1Z" style="fill:#fff;"></path><path d="m216.18,957.56c5.02,0,9.1-4.07,9.1-9.1s-4.07-9.1-9.1-9.1-9.1,4.07-9.1,9.1,4.07,9.1,9.1,9.1Z" style="fill:#fff;"></path><path d="m197.12,943.74c5.08,0,9.19-4.11,9.19-9.18s-4.11-9.19-9.19-9.19-9.19,4.11-9.19,9.19,4.12,9.18,9.19,9.18Z" style="fill:#fff;"></path><path d="m178.68,927.72c4.35,0,7.88-3.52,7.88-7.87s-3.53-7.87-7.88-7.87-7.87,3.52-7.87,7.87,3.52,7.87,7.87,7.87Z" style="fill:#fff;"></path><path d="m160.87,912.84c4.69,0,8.49-3.79,8.49-8.48s-3.8-8.49-8.49-8.49-8.48,3.8-8.48,8.49,3.8,8.48,8.48,8.48Z" style="fill:#fff;"></path><path d="m143.75,897.05c4.93,0,8.92-4,8.92-8.93s-4-8.93-8.92-8.93-8.92,4-8.92,8.93,4,8.93,8.92,8.93Z" style="fill:#fff;"></path><path d="m127.34,878c3.77,0,6.82-3.05,6.82-6.82s-3.05-6.82-6.82-6.82-6.83,3.06-6.83,6.82,3.06,6.82,6.83,6.82Z" style="fill:#fff;"></path><path d="m111.66,862.03c4.69,0,8.48-3.8,8.48-8.48s-3.79-8.48-8.48-8.48-8.49,3.79-8.49,8.48,3.8,8.48,8.49,8.48Z" style="fill:#fff;"></path><path d="m96.75,842.17c3.82,0,6.91-3.1,6.91-6.91s-3.09-6.91-6.91-6.91-6.91,3.09-6.91,6.91,3.1,6.91,6.91,6.91Z" style="fill:#fff;"></path><path d="m82.65,823.26c3.81,0,6.9-3.09,6.9-6.91s-3.09-6.91-6.9-6.91-6.91,3.1-6.91,6.91,3.09,6.91,6.91,6.91Z" style="fill:#fff;"></path><path d="m69.36,800.26c1.88,0,3.41-1.53,3.41-3.41s-1.53-3.41-3.41-3.41-3.42,1.53-3.42,3.41,1.53,3.41,3.42,3.41Z" style="fill:#fff;"></path><path d="m56.91,782.06c2.9,0,5.24-2.35,5.24-5.25s-2.34-5.25-5.24-5.25-5.25,2.35-5.25,5.25,2.35,5.25,5.25,5.25Z" style="fill:#fff;"></path><path d="m45.33,757.82c.87,0,1.58-.71,1.58-1.58s-.71-1.57-1.58-1.57-1.58.7-1.58,1.57.7,1.58,1.58,1.58Z" style="fill:#fff;"></path><path d="m34.64,738.54c1.83,0,3.32-1.49,3.32-3.33s-1.48-3.33-3.32-3.33-3.33,1.49-3.33,3.33,1.48,3.33,3.33,3.33Z" style="fill:#fff;"></path><path d="m24.86,713.83s.08-.04.08-.08c0-.05-.04-.09-.08-.09s-.09.04-.09.09c0,.05.05.08.09.08Z" style="fill:#fff;"></path><path d="m16,692.14c.14,0,.27-.12.27-.26s-.12-.26-.27-.26-.26.12-.26.26.12.26.26.26Z" style="fill:#fff;"></path><path d="m8.09,670.18c.29,0,.53-.24.53-.53s-.24-.52-.53-.52-.53.24-.53.52.24.53.53.53Z" style="fill:#fff;"></path><path d="m1.14,648.24c.62,0,1.13-.51,1.13-1.13s-.51-1.14-1.13-1.14-1.14.51-1.14,1.14.51,1.13,1.14,1.13Z" style="fill:#fff;"></path><path d="m772.26,1021.85s.08-.04.08-.08c0-.05-.04-.09-.08-.09-.05,0-.08.04-.08.09,0,.05.03.08.08.08Z" style="fill:#fff;"></path><path d="m728.58,1039.69s.09-.04.09-.09c0-.05-.05-.09-.09-.09s-.08.04-.08.09c0,.05.04.09.08.09Z" style="fill:#fff;"></path><path d="m706.23,1047.69c.3,0,.53-.24.53-.52s-.23-.53-.53-.53-.53.24-.53.53.24.52.53.52Z" style="fill:#fff;"></path><path d="m614.31,1068.4c.15,0,.27-.11.27-.26s-.11-.27-.27-.27c-.14,0-.26.12-.26.27s.12.26.26.26Z" style="fill:#fff;"></path><path d="m590.9,1071.28c.14,0,.27-.12.27-.26s-.12-.26-.27-.26-.26.11-.26.26.11.26.26.26Z" style="fill:#fff;"></path><circle cx="567.38" cy="1072.94" r=".88" style="fill:#fff;"></circle><path d="m543.81,1076.61c1.49,0,2.7-1.21,2.7-2.71s-1.21-2.71-2.7-2.71-2.72,1.21-2.72,2.71,1.22,2.71,2.72,2.71Z" style="fill:#fff;"></path><circle cx="520.22" cy="1073.9" r="2.71" style="fill:#fff;"></circle><path d="m496.64,1075.13c1.2,0,2.18-.98,2.18-2.18s-.98-2.19-2.18-2.19-2.18.98-2.18,2.19.98,2.18,2.18,2.18Z" style="fill:#fff;"></path><path d="m473.13,1073.21c1.2,0,2.18-.98,2.18-2.19s-.98-2.18-2.18-2.18-2.19.98-2.19,2.18.98,2.19,2.19,2.19Z" style="fill:#fff;"></path><path d="m449.71,1070.59c1.35,0,2.44-1.1,2.44-2.45s-1.1-2.45-2.44-2.45-2.45,1.1-2.45,2.45,1.1,2.45,2.45,2.45Z" style="fill:#fff;"></path><path d="m426.43,1067.45c1.74,0,3.15-1.41,3.15-3.15s-1.41-3.14-3.15-3.14-3.15,1.4-3.15,3.14,1.41,3.15,3.15,3.15Z" style="fill:#fff;"></path><path d="m403.32,1063.72c2.32,0,4.2-1.88,4.2-4.2s-1.88-4.2-4.2-4.2-4.2,1.88-4.2,4.2,1.88,4.2,4.2,4.2Z" style="fill:#fff;"></path><path d="m380.43,1056.61c1.55,0,2.8-1.26,2.8-2.8s-1.26-2.8-2.8-2.8-2.8,1.25-2.8,2.8,1.26,2.8,2.8,2.8Z" style="fill:#fff;"></path><circle cx="357.79" cy="1047.16" r="9.1" style="fill:#fff;"></circle><path d="m335.44,1046.51c3.81,0,6.91-3.09,6.91-6.91s-3.1-6.91-6.91-6.91-6.9,3.09-6.9,6.91,3.09,6.91,6.9,6.91Z" style="fill:#fff;"></path><path d="m313.42,1034.45c1.84,0,3.33-1.49,3.33-3.32s-1.48-3.32-3.33-3.32-3.32,1.48-3.32,3.32,1.48,3.32,3.32,3.32Z" style="fill:#fff;"></path><path d="m291.76,1031.12c5.17,0,9.36-4.19,9.36-9.36s-4.19-9.36-9.36-9.36-9.36,4.19-9.36,9.36,4.19,9.36,9.36,9.36Z" style="fill:#fff;"></path><path d="m270.51,1019.22c4.26,0,7.7-3.44,7.7-7.7s-3.44-7.7-7.7-7.7-7.7,3.44-7.7,7.7,3.44,7.7,7.7,7.7Z" style="fill:#fff;"></path><path d="m249.69,1002.97c1.4,0,2.53-1.14,2.53-2.54s-1.13-2.53-2.53-2.53-2.54,1.13-2.54,2.53,1.14,2.54,2.54,2.54Z" style="fill:#fff;"></path><path d="m229.34,993.3c2.66,0,4.81-2.15,4.81-4.81s-2.15-4.81-4.81-4.81-4.82,2.15-4.82,4.81,2.16,4.81,4.82,4.81Z" style="fill:#fff;"></path><path d="m209.49,976.88c.62,0,1.13-.51,1.13-1.13s-.51-1.14-1.13-1.14-1.14.51-1.14,1.14.51,1.13,1.14,1.13Z" style="fill:#fff;"></path><path d="m190.18,970.23c4.44,0,8.05-3.6,8.05-8.05s-3.61-8.05-8.05-8.05-8.05,3.6-8.05,8.05,3.6,8.05,8.05,8.05Z" style="fill:#fff;"></path><path d="m171.44,952.49c2.56,0,4.63-2.07,4.63-4.64s-2.07-4.63-4.63-4.63-4.64,2.07-4.64,4.63,2.08,4.64,4.64,4.64Z" style="fill:#fff;"></path><path d="m153.29,938.11c2.95,0,5.34-2.39,5.34-5.34s-2.39-5.34-5.34-5.34-5.34,2.39-5.34,5.34,2.39,5.34,5.34,5.34Z" style="fill:#fff;"></path><path d="m135.77,924.66c4.25,0,7.7-3.45,7.7-7.7s-3.44-7.7-7.7-7.7-7.7,3.45-7.7,7.7,3.44,7.7,7.7,7.7Z" style="fill:#fff;"></path><path d="m118.93,902.46c1.11,0,2.01-.9,2.01-2.01s-.9-2.01-2.01-2.01-2.02.9-2.02,2.01.91,2.01,2.02,2.01Z" style="fill:#fff;"></path><path d="m102.76,883.87c.34,0,.61-.27.61-.61s-.27-.61-.61-.61-.62.27-.62.61.28.61.62.61Z" style="fill:#fff;"></path><path d="m87.31,868.48c1.69,0,3.06-1.37,3.06-3.06s-1.37-3.06-3.06-3.06-3.06,1.37-3.06,3.06,1.37,3.06,3.06,3.06Z" style="fill:#fff;"></path><path d="m72.59,847.07c.05,0,.09-.05.09-.09s-.04-.08-.09-.08c-.05,0-.08.04-.08.08s.04.09.08.09Z" style="fill:#fff;"></path><path d="m58.65,828.73c.43,0,.79-.35.79-.78s-.36-.79-.79-.79-.78.35-.78.79.35.78.78.78Z" style="fill:#fff;"></path><path d="m45.49,808.63c.14,0,.27-.12.27-.26s-.12-.26-.27-.26-.27.11-.27.26.12.26.27.26Z" style="fill:#fff;"></path><path d="m33.14,788.53c.14,0,.26-.12.26-.27s-.11-.26-.26-.26-.27.11-.27.26.12.27.27.27Z" style="fill:#fff;"></path><path d="m1.16,725.25s.08-.04.08-.09c0-.05-.04-.09-.08-.09-.05,0-.09.04-.09.09,0,.05.04.09.09.09Z" style="fill:#fff;"></path><path d="m351.92,1073.65c.44,0,.79-.35.79-.79s-.35-.79-.79-.79-.78.35-.78.79.35.79.78.79Z" style="fill:#fff;"></path><path d="m329.54,1065.67c.14,0,.27-.12.27-.27s-.12-.26-.27-.26-.26.11-.26.26.11.27.26.27Z" style="fill:#fff;"></path><path d="m307.47,1057.16s.08-.04.08-.09-.04-.09-.08-.09c-.05,0-.09.04-.09.09s.04.09.09.09Z" style="fill:#fff;"></path><path d="m285.73,1048.49c.34,0,.62-.27.62-.61s-.27-.61-.62-.61-.61.27-.61.61.27.61.61.61Z" style="fill:#fff;"></path><path d="m264.37,1038.46c.34,0,.62-.27.62-.61s-.27-.61-.62-.61-.61.28-.61.61.27.61.61.61Z" style="fill:#fff;"></path><path d="m243.43,1027.08s.09-.04.09-.08c0-.05-.05-.09-.09-.09s-.08.04-.08.09c0,.05.04.08.08.08Z" style="fill:#fff;"></path><path d="m222.92,1015.86c.29,0,.53-.24.53-.52s-.24-.53-.53-.53-.53.24-.53.53.24.52.53.52Z" style="fill:#fff;"></path><path d="m202.87,1003.14c.15,0,.27-.11.27-.26s-.11-.27-.27-.27-.26.12-.26.27.11.26.26.26Z" style="fill:#fff;"></path><path d="m183.34,989.91c.14,0,.26-.12.26-.26s-.11-.26-.26-.26-.27.11-.27.26.12.26.27.26Z" style="fill:#fff;"></path><path d="m164.33,975.93c.14,0,.26-.12.26-.26,0-.15-.11-.27-.26-.27s-.26.12-.26.27c0,.14.11.26.26.26Z" style="fill:#fff;"></path><path d="m145.89,961.48c.29,0,.52-.24.52-.53s-.23-.53-.52-.53-.53.24-.53.53.24.53.53.53Z" style="fill:#fff;"></path><path d="m128.03,945.63s.08-.04.08-.09c0-.05-.04-.08-.08-.08-.05,0-.09.04-.09.08,0,.05.04.09.09.09Z" style="fill:#fff;"></path><path d="m110.78,929.52c.05,0,.09-.04.09-.08,0-.05-.04-.09-.09-.09-.05,0-.08.04-.08.09,0,.05.04.08.08.08Z" style="fill:#fff;"></path><path d="m94.18,912.76c.05,0,.09-.04.09-.09,0-.05-.04-.08-.09-.08-.04,0-.08.04-.08.08,0,.05.05.09.08.09Z" style="fill:#fff;"></path><path d="m78.25,895.36c.05,0,.08-.04.08-.08,0-.05-.03-.09-.08-.09s-.08.04-.08.09c0,.05.03.08.08.08Z" style="fill:#fff;"></path><path d="m48.48,858.76s.08-.04.08-.08-.04-.09-.08-.09-.09.04-.09.09.05.08.09.08Z" style="fill:#fff;"></path><path d="m258.27,1064.21c.05,0,.09-.04.09-.09,0-.05-.04-.09-.09-.09-.05,0-.08.05-.08.09,0,.05.04.09.08.09Z" style="fill:#fff;"></path><path d="m237.21,1053.57c.05,0,.09-.04.09-.08,0-.05-.04-.09-.09-.09-.05,0-.08.04-.08.09,0,.05.04.08.08.08Z" style="fill:#fff;"></path><path d="m216.55,1042.17c.05,0,.09-.05.09-.09,0-.05-.04-.09-.09-.09,0,0-.08.04-.08.09,0,.05.05.09.08.09Z" style="fill:#fff;"></path><path d="m196.35,1029.99s.08-.04.08-.09c0-.05-.04-.08-.08-.08s-.09.04-.09.08c0,.05.05.09.09.09Z" style="fill:#fff;"></path><path d="m176.61,1017.06s.08-.04.08-.09-.04-.09-.08-.09c-.05,0-.08.04-.08.09s.03.09.08.09Z" style="fill:#fff;"></path><path d="m157.37,1003.41s.08-.04.08-.09c0-.05-.04-.09-.08-.09-.05,0-.08.04-.08.09,0,.05.03.09.08.09Z" style="fill:#fff;"></path><path d="m138.65,989.05s.08-.04.08-.09c0-.05-.04-.08-.08-.08-.05,0-.08.04-.08.08,0,.05.03.09.08.09Z" style="fill:#fff;"></path><path d="m69.52,924.91c.05,0,.09-.04.09-.09s-.04-.09-.09-.09c-.05,0-.08.04-.08.09s.04.09.08.09Z" style="fill:#fff;"></path><path d="m53.8,907.32s.09-.04.09-.09c0-.05-.05-.08-.09-.08s-.09.04-.09.08c0,.05.05.09.09.09Z" style="fill:#fff;"></path><path d="m38.75,889.14s.08-.04.08-.08c0-.05-.04-.09-.08-.09-.05,0-.09.04-.09.09,0,.05.04.08.09.08Z" style="fill:#fff;"></path><path d="m231.03,1080c.05,0,.09-.04.09-.08,0-.05-.04-.09-.09-.09-.05,0-.08.04-.08.09,0,.05.04.08.08.08Z" style="fill:#fff;"></path><path d="m113.1,1002.42c.19,0,.34-.16.34-.35s-.15-.35-.34-.35-.35.15-.35.35.15.35.35.35Z" style="fill:#fff;"></path><path d="m44.94,936.99c.05,0,.09-.04.09-.08,0-.05-.04-.09-.09-.09-.04,0-.08.04-.08.09,0,.05.05.08.08.08Z" style="fill:#fff;"></path><path d="m29.42,919.22s.08-.04.08-.09c0-.05-.04-.09-.08-.09-.05,0-.09.04-.09.09,0,.05.04.09.09.09Z" style="fill:#fff;"></path><path d="m124.57,1044.54s.08-.04.08-.09c0-.05-.04-.08-.08-.08-.05,0-.09.04-.09.08,0,.05.04.09.09.09Z" style="fill:#fff;"></path><path d="m105.87,1030.15s.08-.04.08-.08c0-.05-.04-.09-.08-.09-.05,0-.09.04-.09.09,0,.05.04.08.09.08Z" style="fill:#fff;"></path></svg> 